<svg width="423" height="270" viewBox="0 0 423 270" fill="none" xmlns="http://www.w3.org/2000/svg">
<g filter="url(#filter0_d)">
<path d="M9 13C9 7.47716 13.4772 3 19 3H404C409.523 3 414 7.47715 414 13V245C414 250.523 409.523 255 404 255H19C13.4771 255 9 250.523 9 245V13Z" fill="#F0F0F0"/>
<path d="M19 3.5H404C409.247 3.5 413.5 7.75329 413.5 13V245C413.5 250.247 409.247 254.5 404 254.5H19C13.7533 254.5 9.5 250.247 9.5 245V13C9.5 7.7533 13.7533 3.5 19 3.5Z" stroke="#CACED4"/>
</g>
<path d="M19 3.5H404C409.247 3.5 413.5 7.75329 413.5 13V58.5H9.5V13C9.5 7.75329 13.7533 3.5 19 3.5Z" fill="#E9EDF2" stroke="#CACED4"/>
<path d="M194.768 110.942L210.114 81.6881C210.489 80.9741 211.511 80.9741 211.886 81.6881L227.232 110.942C227.581 111.608 227.098 112.406 226.346 112.406H195.654C194.902 112.406 194.419 111.608 194.768 110.942Z" fill="#EABC00" stroke="#EABC00"/>
<rect x="208.875" y="90.625" width="4.25" height="12.75" rx="1" fill="#F2F2F2"/>
<rect x="208.875" y="105.5" width="4.25" height="4.25" rx="1" fill="#F2F2F2"/>
<path d="M105.027 153.582H105.145L109.047 167H111.039L115.645 150.09H113.441L110.055 163.895H109.961L106.152 150.09H104.02L100.211 163.895H100.117L96.7305 150.09H94.5273L99.1328 167H101.125L105.027 153.582ZM117.602 167H119.641V159.898C119.641 157.789 120.895 156.406 122.922 156.406C124.832 156.406 125.805 157.566 125.805 159.5V167H127.844V159.125C127.844 156.406 126.227 154.602 123.555 154.602C121.703 154.602 120.367 155.398 119.688 156.758H119.641V150.09H117.602V167ZM131.453 171.559C133.656 171.559 134.664 170.703 135.707 167.855L140.5 154.812H138.355L134.98 164.961H134.945L131.57 154.812H129.391L133.891 167.012L133.609 167.867C133.141 169.285 132.508 169.836 131.371 169.836C131.113 169.836 130.797 169.824 130.574 169.777V171.488C130.797 171.535 131.207 171.559 131.453 171.559ZM150.59 167.211C152.23 167.211 153.777 166.297 154.504 164.902H154.551V167H156.484V158.574C156.484 156.148 154.68 154.602 151.82 154.602C148.938 154.602 147.133 156.219 146.992 158.328H148.961C149.219 157.133 150.203 156.395 151.773 156.395C153.461 156.395 154.445 157.285 154.445 158.773V159.793L150.953 159.992C148.141 160.156 146.535 161.469 146.535 163.555C146.535 165.746 148.164 167.211 150.59 167.211ZM151.047 165.477C149.582 165.477 148.609 164.715 148.609 163.555C148.609 162.406 149.547 161.68 151.188 161.574L154.445 161.375V162.371C154.445 164.129 152.969 165.477 151.047 165.477ZM159.074 167H161.113V159.406C161.113 157.684 162.145 156.547 163.727 156.547C164.219 156.547 164.652 156.605 164.816 156.664V154.684C164.652 154.66 164.348 154.602 163.996 154.602C162.566 154.602 161.441 155.457 161.043 156.805H160.996V154.812H159.074V167ZM173.98 163.508C173.641 164.656 172.504 165.441 170.957 165.441C168.766 165.441 167.395 163.906 167.395 161.574V161.457H176.137V160.684C176.137 156.992 174.109 154.602 170.816 154.602C167.453 154.602 165.297 157.168 165.297 160.953C165.297 164.785 167.418 167.211 170.91 167.211C173.57 167.211 175.633 165.641 175.984 163.508H173.98ZM170.781 156.371C172.703 156.371 173.98 157.824 174.027 159.863H167.406C167.535 157.836 168.871 156.371 170.781 156.371ZM183.777 151.871V154.812H181.961V156.488H183.777V163.836C183.777 166.18 184.645 167.094 186.883 167.094C187.363 167.094 187.926 167.059 188.172 167V165.289C188.031 165.312 187.562 165.348 187.328 165.348C186.285 165.348 185.816 164.844 185.816 163.73V156.488H188.184V154.812H185.816V151.871H183.777ZM190.469 167H192.508V159.898C192.508 157.789 193.762 156.406 195.789 156.406C197.699 156.406 198.672 157.566 198.672 159.5V167H200.711V159.125C200.711 156.406 199.094 154.602 196.422 154.602C194.57 154.602 193.234 155.398 192.555 156.758H192.508V150.09H190.469V167ZM211.387 163.508C211.047 164.656 209.91 165.441 208.363 165.441C206.172 165.441 204.801 163.906 204.801 161.574V161.457H213.543V160.684C213.543 156.992 211.516 154.602 208.223 154.602C204.859 154.602 202.703 157.168 202.703 160.953C202.703 164.785 204.824 167.211 208.316 167.211C210.977 167.211 213.039 165.641 213.391 163.508H211.387ZM208.188 156.371C210.109 156.371 211.387 157.824 211.434 159.863H204.812C204.941 157.836 206.277 156.371 208.188 156.371ZM216.625 171.559C218.828 171.559 219.836 170.703 220.879 167.855L225.672 154.812H223.527L220.152 164.961H220.117L216.742 154.812H214.562L219.062 167.012L218.781 167.867C218.312 169.285 217.68 169.836 216.543 169.836C216.285 169.836 215.969 169.824 215.746 169.777V171.488C215.969 171.535 216.379 171.559 216.625 171.559ZM232.199 167H234.238V159.406C234.238 157.684 235.27 156.547 236.852 156.547C237.344 156.547 237.777 156.605 237.941 156.664V154.684C237.777 154.66 237.473 154.602 237.121 154.602C235.691 154.602 234.566 155.457 234.168 156.805H234.121V154.812H232.199V167ZM247.105 163.508C246.766 164.656 245.629 165.441 244.082 165.441C241.891 165.441 240.52 163.906 240.52 161.574V161.457H249.262V160.684C249.262 156.992 247.234 154.602 243.941 154.602C240.578 154.602 238.422 157.168 238.422 160.953C238.422 164.785 240.543 167.211 244.035 167.211C246.695 167.211 248.758 165.641 249.109 163.508H247.105ZM243.906 156.371C245.828 156.371 247.105 157.824 247.152 159.863H240.531C240.66 157.836 241.996 156.371 243.906 156.371ZM251.43 167H253.469V150.09H251.43V167ZM264.309 163.508C263.969 164.656 262.832 165.441 261.285 165.441C259.094 165.441 257.723 163.906 257.723 161.574V161.457H266.465V160.684C266.465 156.992 264.438 154.602 261.145 154.602C257.781 154.602 255.625 157.168 255.625 160.953C255.625 164.785 257.746 167.211 261.238 167.211C263.898 167.211 265.961 165.641 266.312 163.508H264.309ZM261.109 156.371C263.031 156.371 264.309 157.824 264.355 159.863H257.734C257.863 157.836 259.199 156.371 261.109 156.371ZM278.523 154.812H276.402L273.027 164.832H272.98L269.617 154.812H267.473L271.961 167H274.047L278.523 154.812ZM283.457 167.211C285.098 167.211 286.645 166.297 287.371 164.902H287.418V167H289.352V158.574C289.352 156.148 287.547 154.602 284.688 154.602C281.805 154.602 280 156.219 279.859 158.328H281.828C282.086 157.133 283.07 156.395 284.641 156.395C286.328 156.395 287.312 157.285 287.312 158.773V159.793L283.82 159.992C281.008 160.156 279.402 161.469 279.402 163.555C279.402 165.746 281.031 167.211 283.457 167.211ZM283.914 165.477C282.449 165.477 281.477 164.715 281.477 163.555C281.477 162.406 282.414 161.68 284.055 161.574L287.312 161.375V162.371C287.312 164.129 285.836 165.477 283.914 165.477ZM291.941 167H293.98V159.828C293.98 157.766 295.234 156.406 297.156 156.406C299.031 156.406 299.957 157.484 299.957 159.453V167H301.996V159.09C301.996 156.324 300.449 154.602 297.777 154.602C295.891 154.602 294.59 155.445 293.91 156.758H293.863V154.812H291.941V167ZM305.254 151.871V154.812H303.438V156.488H305.254V163.836C305.254 166.18 306.121 167.094 308.359 167.094C308.84 167.094 309.402 167.059 309.648 167V165.289C309.508 165.312 309.039 165.348 308.805 165.348C307.762 165.348 307.293 164.844 307.293 163.73V156.488H309.66V154.812H307.293V151.871H305.254ZM311.172 154.508H313.176C313.305 152.832 314.43 151.789 316.199 151.789C317.945 151.789 319.07 152.855 319.07 154.309C319.07 155.562 318.543 156.301 317.184 157.133C315.578 158.094 314.828 159.148 314.84 160.695V161.773H316.891V161.012C316.891 159.781 317.312 159.125 318.801 158.246C320.301 157.344 321.25 156.043 321.25 154.203C321.25 151.789 319.234 149.961 316.281 149.961C312.988 149.961 311.301 151.988 311.172 154.508ZM315.871 167.117C316.633 167.117 317.207 166.531 317.207 165.781C317.207 165.02 316.633 164.445 315.871 164.445C315.121 164.445 314.535 165.02 314.535 165.781C314.535 166.531 315.121 167.117 315.871 167.117Z" fill="black"/>
<defs>
<filter id="filter0_d" x="0" y="0" width="423" height="270" filterUnits="userSpaceOnUse" color-interpolation-filters="sRGB">
<feFlood flood-opacity="0" result="BackgroundImageFix"/>
<feColorMatrix in="SourceAlpha" type="matrix" values="0 0 0 0 0 0 0 0 0 0 0 0 0 0 0 0 0 0 127 0"/>
<feOffset dy="6"/>
<feGaussianBlur stdDeviation="4.5"/>
<feColorMatrix type="matrix" values="0 0 0 0 0 0 0 0 0 0 0 0 0 0 0 0 0 0 0.15 0"/>
<feBlend mode="normal" in2="BackgroundImageFix" result="effect1_dropShadow"/>
<feBlend mode="normal" in="SourceGraphic" in2="effect1_dropShadow" result="shape"/>
</filter>
</defs>
</svg>
