<?xml version="1.0" encoding="utf-8"?>
<!-- Generator: Adobe Illustrator 24.2.3, SVG Export Plug-In . SVG Version: 6.00 Build 0)  -->
<svg version="1.1" id="Livello_1" xmlns="http://www.w3.org/2000/svg" xmlns:xlink="http://www.w3.org/1999/xlink" x="0px" y="0px"
	 viewBox="0 0 804 108" style="enable-background:new 0 0 804 108;" xml:space="preserve">
<style type="text/css">
	.st0{fill:#F9EDE0;}
</style>
<path class="st0" d="M87.3,0.3c-3.1,0-5,1.4-6.3,3.5H20.7c-1.1-2.1-3.2-3.5-6.2-3.5C6.8,0.3,0.3,14.4,0.3,28
	c0,8.4,3.2,12.7,7.6,12.7c4.2,0,6.4-3.4,8.8-9.9c1.3-3.6,2.8-7.4,4.5-9.8c1.7-2.5,5.3-3.4,9.9-3.4h1.3c3.1,0,3.8,3.9,3.8,15v48
	c0,5.3-0.7,9-3.8,9.9c-5,1.1-8,2.7-8,6.3c0,6.4,10.2,8.3,26.6,8.3c16.2,0,26.5-1.8,26.5-8.3c0-3.6-2.8-5.2-7.8-6.4
	c-3.1-1-3.9-4.5-3.9-9.8v-48c0-11.1,0.7-15,3.8-15h1.3c4.6,0,8.3,0.8,9.9,3.4s3.2,6.2,4.5,9.8c2.4,6.6,4.6,9.9,8.8,9.9
	c4.3,0,7.7-4.3,7.7-12.7C101.6,14.4,94.9,0.3,87.3,0.3z M211.3,90.7c-2.5-0.8-2.8-4.6-2.8-9.9V27c0-5.3,0.3-9.1,2.8-9.9
	c4.2-1.1,6.7-2.7,6.7-6.2c0-6.3-9.4-8.3-24.4-8.3c-14.8,0-24.2,2-24.2,8.3c0,3.5,2.5,5,6.7,6.2c2.5,1,2.8,4.6,2.8,9.9v17.8
	c-0.7,1.3-1.4,1.5-7.3,1.5H152c-5.9,0-6.6-0.3-7.3-1.5V27c0-5.3,0.3-9.1,2.8-9.9c4.2-1.1,6.7-2.7,6.7-6.2c0-6.3-9.2-8.3-24.2-8.3
	s-24.2,2-24.2,8.3c0,3.5,2.5,5,6.6,6.2c2.5,1,2.9,4.6,2.9,9.9v53.8c0,5.3-0.4,9-2.9,9.9c-4.1,1.1-6.6,2.7-6.6,6.2
	c0,6.4,9.2,8.3,24.2,8.3s24.2-1.8,24.2-8.3c0-3.5-2.5-5-6.7-6.2c-2.5-0.8-2.8-4.6-2.8-9.9V62.3c0.7-1.3,1.4-1.5,7.3-1.5h19.7
	c5.9,0,6.6,0.3,7.3,1.5v18.5c0,5.3-0.3,9-2.8,9.9c-4.2,1.1-6.7,2.7-6.7,6.2c0,6.4,9.4,8.3,24.2,8.3c15,0,24.4-1.8,24.4-8.3
	C218.1,93.4,215.5,91.8,211.3,90.7z M309.8,67.2c-4.2,0-6.7,3.8-8.5,9c-1.4,4.5-2.8,8.3-4.8,10.4c-2.2,2.4-7.3,3.8-17.4,3.8H270
	c-5.3,0-5.9-3.5-5.9-14.4V59.8c11.9,0,17.6,0.8,18.1,3.6c0.6,5.5,1.5,8.3,6,8.3c5.7,0,8.4-8.4,8.3-18.5c0-10.4-2.5-18.6-8.3-18.6
	c-4.5,0-5.6,3.1-6,8.5c-0.3,2.9-6.3,3.8-18.1,3.8V31.1c0-10.2,0.7-13.6,6-13.6h9c9.1,0,13.7,1.1,15.8,3.1c1.5,1.5,2.8,4.2,4.3,8.4
	c1.8,4.6,3.8,7.4,7.7,7.4c3.9,0,7.3-3.9,7.3-12c0-11.9-5.9-24.1-12.9-24.1c-2.7,0-4.8,1.4-5.9,3.5h-32.6c-7.1,0-13.4-0.3-18.6-0.3
	c-13,0-19.5,1.8-19.5,7.4c0,3.9,3.4,5.7,7.4,6.6c2.7,1,2.9,4.8,2.9,9.9v52.9c0,5.2-0.4,9.1-3.1,9.9c-4.1,1-7.4,2.7-7.4,6.6
	c0,5.7,6.6,7.4,19.6,7.4c4.6,0,11.2-0.3,18.6-0.3h33.7c1.3,2.2,3.4,3.6,6.4,3.6c7.7,0,14.3-15,14.3-28
	C317.3,71.2,314.1,67.2,309.8,67.2z M458.2,90.7c-2.5-0.8-2.8-4.6-2.8-9.9V27c0-5.3,0.3-9.1,2.8-9.9c4.2-1.1,6.7-2.7,6.7-6.2
	c0-6.3-9.4-8.3-24.4-8.3c-14.8,0-24.2,2-24.2,8.3c0,3.5,2.5,5,6.7,6.2c2.5,1,2.8,4.6,2.8,9.9v17.8c-0.7,1.3-1.4,1.5-7.3,1.5h-19.7
	c-5.9,0-6.6-0.3-7.3-1.5V27c0-5.3,0.3-9.1,2.8-9.9c4.2-1.1,6.7-2.7,6.7-6.2c0-6.3-9.2-8.3-24.2-8.3s-24.2,2-24.2,8.3
	c0,3.5,2.5,5,6.6,6.2c2.5,1,2.9,4.6,2.9,9.9v53.8c0,5.3-0.4,9-2.9,9.9c-4.1,1.1-6.6,2.7-6.6,6.2c0,6.4,9.2,8.3,24.2,8.3
	s24.2-1.8,24.2-8.3c0-3.5-2.5-5-6.7-6.2c-2.5-0.8-2.8-4.6-2.8-9.9V62.3c0.7-1.3,1.4-1.5,7.3-1.5h19.7c5.9,0,6.6,0.3,7.3,1.5v18.5
	c0,5.3-0.3,9-2.8,9.9c-4.2,1.1-6.7,2.7-6.7,6.2c0,6.4,9.4,8.3,24.2,8.3c15,0,24.4-1.8,24.4-8.3C464.9,93.4,462.4,91.8,458.2,90.7z
	 M571.4,64.9V31.6c0-9,0.7-13,4.2-14.6c4.1-1,7.6-2.5,7.6-6.4c0-6-9.5-8-20.6-8c-11.9,0-21.4,2-21.4,8.3c0,3.8,3.6,5.5,8.5,6.3
	c4.8,1.4,5.5,5.5,5.5,14.4v33.3c0,14.7-9.9,22.5-23.9,22.5c-14.3,0-23-7.8-23-22.5V27.3c0-4.6,0.3-9,3.1-10.1c4.3-1,7.3-2.5,7.3-6.3
	c0-6.3-9.8-8.3-25.1-8.3c-15,0-24.4,2-24.4,8.3c0,3.6,2.7,5,6.7,6.2c2.5,1,2.9,4.3,2.9,9.9v38.9c0,26.6,19.9,40,46.3,40
	C554.3,106,571.4,89.7,571.4,64.9z M680.1,2.6c-12.7,0-21.4,2.2-21.4,8.5c0,3.6,3.4,5.6,8.5,7c3.8,1.3,4.8,5.9,4.8,14.4v20.7
	c0,2.9-0.1,5.5-0.3,7.6c-11.5-13.2-26.5-32.1-40.6-48.2c-7.3-7.8-11.1-9.8-23.4-9.8c-13.3,0-20.6,2.1-20.6,8.1
	c0,3.9,4.1,5.9,8.7,7.3c2.9,1.1,4.1,5.3,4.1,10.8v46.1c0,7.3-0.4,13.3-3.6,14.4c-5.2,1.3-8.3,3.4-8.3,7c0,6.3,8.7,8.5,20,8.5
	c12.7,0,21.4-2.2,21.4-8.5c0-3.6-3.4-5.6-8.5-7c-3.8-1.3-4.8-5.9-4.8-14.4V54.6c0-4.6,0-9.8,0.3-14.4c12,12.9,31.9,36.7,46.2,53.8
	c6,6.7,10.4,11.5,16.4,11.5s9.7-3.9,9.7-10.9c0-7.4-0.4-18.1-0.4-28.3V32.6c0-7.3,0.4-13.3,3.6-14.4c5.3-1.3,8.4-3.4,8.4-7
	C700.3,4.9,691.4,2.6,680.1,2.6z M789.4,0.3c-3.1,0-5,1.4-6.3,3.5h-60.3c-1.1-2.1-3.2-3.5-6.2-3.5c-7.7,0-14.3,14.1-14.3,27.7
	c0,8.4,3.2,12.7,7.6,12.7c4.2,0,6.4-3.4,8.8-9.9c1.3-3.6,2.8-7.4,4.5-9.8c1.7-2.5,5.3-3.4,9.9-3.4h1.3c3.1,0,3.8,3.9,3.8,15v48
	c0,5.3-0.7,9-3.8,9.9c-5,1.1-8,2.7-8,6.3c0,6.4,10.2,8.3,26.6,8.3c16.2,0,26.5-1.8,26.5-8.3c0-3.6-2.8-5.2-7.8-6.4
	c-3.1-1-3.9-4.5-3.9-9.8v-48c0-11.1,0.7-15,3.8-15h1.3c4.6,0,8.3,0.8,9.9,3.4s3.2,6.2,4.5,9.8c2.4,6.6,4.6,9.9,8.8,9.9
	c4.3,0,7.7-4.3,7.7-12.7C803.7,14.4,796.9,0.3,789.4,0.3z"/>
</svg>
