<svg width="80" height="80" viewBox="0 0 80 80" fill="none" xmlns="http://www.w3.org/2000/svg">
<path fill-rule="evenodd" clip-rule="evenodd" d="M80 40C80 62.0914 62.0914 80 40 80C17.9086 80 0 62.0914 0 40C0 17.9086 17.9086 0 40 0C62.0914 0 80 17.9086 80 40ZM16.431 24.9737C15.9847 24.5273 15.9847 23.8037 16.431 23.3574L23.5693 16.2192C24.0156 15.7729 24.7392 15.7729 25.1855 16.2192L39.802 30.8356L54.8126 15.825C55.2589 15.3787 55.9825 15.3787 56.4288 15.825L64.3832 23.7794C64.8295 24.2257 64.8295 24.9493 64.3832 25.3956L49.3726 40.4062L63.9754 55.009C64.4217 55.4553 64.4217 56.179 63.9754 56.6253L56.8371 63.7635C56.3908 64.2098 55.6672 64.2098 55.2209 63.7635L40.6181 49.1607L25.5933 64.1855C25.147 64.6318 24.4234 64.6318 23.9771 64.1855L16.0227 56.2311C15.5764 55.7848 15.5764 55.0611 16.0227 54.6148L31.0475 39.5901L16.431 24.9737Z" fill="#656565"/>
</svg>
