<svg width="144" height="24" viewBox="0 0 144 24" fill="none" xmlns="http://www.w3.org/2000/svg">
<path d="M12.7852 16.1016H4.62891V1.08984H2.51953V18H12.7852V16.1016ZM25.582 16.1016H17.2148V10.2891H25.1484V8.41406H17.2148V2.98828H25.582V1.08984H15.1055V18H25.582V16.1016ZM39.3633 18H41.5781L35.3438 1.08984H33.2578L27.0234 18H29.2383L30.9375 13.1602H37.6641L39.3633 18ZM34.2656 3.65625H34.3359L37.043 11.3672H31.5586L34.2656 3.65625ZM45.6211 11.3086H49.6641L53.2852 18H55.7578L51.8438 10.9805C53.9648 10.3125 55.2422 8.48438 55.2422 6.12891C55.2422 3.08203 53.1094 1.08984 49.8516 1.08984H43.5117V18H45.6211V11.3086ZM45.6211 2.96484H49.5703C51.75 2.96484 53.0625 4.17188 53.0625 6.19922C53.0625 8.27344 51.832 9.44531 49.6641 9.44531H45.6211V2.96484ZM59.9883 18V4.76953H60.0938L69.3516 18H71.4023V1.08984H69.3164V14.3672H69.2109L59.9531 1.08984H57.9023V18H59.9883ZM96.2695 18V1.08984H93.8203L87.9844 15.3164H87.8906L82.0547 1.08984H79.6055V18H81.5742V4.96875H81.6562L87.0469 18H88.8281L94.2188 4.96875H94.3008V18H96.2695ZM106.688 0.808594C101.895 0.808594 98.8945 4.18359 98.8945 9.55078C98.8945 14.918 101.895 18.2812 106.688 18.2812C111.48 18.2812 114.48 14.918 114.48 9.55078C114.48 4.18359 111.48 0.808594 106.688 0.808594ZM106.688 2.75391C110.145 2.75391 112.312 5.37891 112.312 9.55078C112.312 13.7109 110.145 16.3359 106.688 16.3359C103.23 16.3359 101.062 13.7109 101.062 9.55078C101.062 5.37891 103.23 2.75391 106.688 2.75391ZM119.215 11.3086H123.258L126.879 18H129.352L125.438 10.9805C127.559 10.3125 128.836 8.48438 128.836 6.12891C128.836 3.08203 126.703 1.08984 123.445 1.08984H117.105V18H119.215V11.3086ZM119.215 2.96484H123.164C125.344 2.96484 126.656 4.17188 126.656 6.19922C126.656 8.27344 125.426 9.44531 123.258 9.44531H119.215V2.96484ZM141.973 16.1016H133.605V10.2891H141.539V8.41406H133.605V2.98828H141.973V1.08984H131.496V18H141.973V16.1016Z" fill="black"/>
<path d="M0.878906 22.3359H143.109V23.7422H0.878906V22.3359Z" fill="black"/>
</svg>
