<svg width="604" height="352" viewBox="0 0 604 352" fill="none" xmlns="http://www.w3.org/2000/svg">
<g filter="url(#filter0_d)">
<rect x="9" y="3" width="586" height="334" rx="10" fill="#EBEFF5"/>
<rect x="9.5" y="3.5" width="585" height="333" rx="9.5" stroke="#CACED4"/>
</g>
<path d="M9.5 13C9.5 7.75329 13.7533 3.5 19 3.5H585C590.247 3.5 594.5 7.7533 594.5 13V41.5H9.5V13Z" fill="#EEF3FA" stroke="#CACED4"/>
<circle cx="68" cy="23" r="6" fill="#C4C4C4"/>
<circle cx="48" cy="23" r="6" fill="#C4C4C4"/>
<circle cx="28" cy="23" r="6" fill="#C4C4C4"/>
<path d="M48 137.5C48 137.5 87.8 132.3 89 132.1C90.7 131.8 92.3 131.5 93.7 131.1C96.9 130.2 99.9 128.9 102.5 127.1C105 125.4 107.4 122.9 109.7 120.2C111.2 118.5 112.7 116.2 114.2 114V113C112.5 115.6 110.8 117.8 109.1 119.7C106.8 122.3 104.4 124.4 101.9 126C99.4 127.6 96.5 128.9 93.4 129.7C92 130.1 90.5 130.3 88.8 130.6C87.7 130.8 86.6 130.9 85.5 131C85 131 48 134.9 48 134.9V137.5Z" fill="#005FBD"/>
<path d="M101.4 130.8C98.9 132.2 96 133.3 92.8 133.9C91.4 134.2 90 134.4 88.3 134.6C87.3 134.7 86.3 134.8 85.3 134.9C84.8 134.9 84.2 135 83.7 135C71.5 136.2 59.4 137.3 48 138.4V141C59.4 139.6 71.7 138.1 83.9 136.7C84.4 136.6 85 136.6 85.5 136.5C86.5 136.4 87.5 136.3 88.5 136.1C90.2 135.9 91.8 135.6 93.1 135.3C96.4 134.6 99.4 133.4 102 131.8C104.6 130.2 106.8 128.1 109.3 125.4C110.8 123.7 112.5 121.4 114.1 119.2V118.2C112.2 120.7 110.5 122.9 108.7 124.7C106.3 127.4 103.9 129.4 101.4 130.8Z" fill="#005FBD"/>
<path d="M108.4 130.2C106 132.4 103.4 134.2 100.9 135.5C98.4 136.7 95.6 137.6 92.3 138.1C90.9 138.3 89.5 138.5 87.8 138.7L48 141.9V144.5L83.3 140.7L87.9 140.2C89.6 140 91.1 139.8 92.5 139.5C95.9 138.9 98.8 137.9 101.4 136.6C104.1 135.2 106.7 133 109.2 130.6C110.9 129 112.4 126.9 114.1 124.8V123.9C112.1 126.4 110.3 128.4 108.4 130.2Z" fill="#005FBD"/>
<path d="M98.8 143.6C96.5 144.9 94.8 145.7 91.5 146C89.5 146.2 87.5 146.3 85.5 146.4C84.5 146.4 83.6 146.5 82.6 146.6C76.6 146.9 70.7 147.3 64.7 147.7L48 148.9V151.5L64.8 149.9C70.2 149.4 76.5 148.8 82.7 148.3L87.2 148C88.9 147.9 90.4 147.7 91.7 147.5C95.1 147.1 98 146.4 100.6 145.4C103.4 144.4 106 142.7 108.6 140.8C111 139.1 114.2 135.7 114.2 135.6V134.7C112.1 136.8 110.8 138 108.5 139.5C105.6 141.5 100.9 142.5 98.8 143.6Z" fill="#005FBD"/>
<path d="M99.6016 148.6C97.1016 149.3 94.3016 149.8 91.0016 150.1C89.7016 150.2 88.2016 150.3 86.6016 150.4L82.2016 150.6C71.2016 151.1 60.2016 151.7 48.1016 152.3V154.9C59.7016 154 71.0016 153.1 82.4016 152.3L86.8016 152C88.5016 151.9 89.9016 151.8 91.3016 151.6C94.7016 151.2 97.6016 150.6 100.102 149.8C102.902 148.9 105.702 147.6 108.302 145.9C110.202 144.7 112.202 143.2 114.202 141.4C112.002 143.3 109.902 143.7 107.802 145C105.102 146.6 102.402 147.8 99.6016 148.6Z" fill="#005FBD"/>
<path d="M99.2 152.9C96.7 153.5 93.9 153.9 90.6 154.1C89.3 154.2 87.9 154.3 86.2 154.3L81.8 154.5C70.7 154.9 59.5 155.4 48 155.9V158.5C59.4 157.7 70.6 157 81.9 156.2L86.3 155.9C88 155.8 89.4 155.7 90.7 155.6C94.1 155.3 96.9 154.8 99.5 154.1C102.4 153.3 105.2 152.2 107.9 150.8C110 149.7 112 148.4 114.1 146.8V145.7C111.8 147.4 109.6 148.7 107.4 149.8C104.8 151.2 102 152.2 99.2 152.9Z" fill="#005FBD"/>
<path d="M98.8 157.1C96.3 157.6 93.5 157.9 90.2 158C88.9 158.1 87.6 158.1 85.9 158.2L48 159.2V161.8L81.6 160L86 159.8C87.7 159.7 89.1 159.6 90.4 159.5C93.8 159.2 96.5 158.9 99.1 158.3C102 157.7 104.9 156.8 107.6 155.6C109.8 154.7 111.9 153.6 114.2 152.2V151.2C111.8 152.6 109.5 153.7 107.2 154.6C104.5 155.8 101.7 156.6 98.8 157.1Z" fill="#005FBD"/>
<path d="M98.5 161.3C93.8 161.9 89.1 162 84.4 162.1C83.3 162.1 82.3 162.1 81.2 162.2L48 162.8V165.4L81.3 164C82.4 164 83.4 163.9 84.5 163.9C89.2 163.7 94 163.5 98.7 162.8C101.7 162.3 104.6 161.6 107.2 160.7C109.4 160 111.7 159 114 157.8V156.8C111.6 157.9 109.1 158.9 106.8 159.6C104.3 160.3 101.5 161 98.5 161.3Z" fill="#005FBD"/>
<path d="M98.3 165.6C93.9 166 89.5 166 85.1 166C83.8 166 82.4 166 81.1 166C70.1 166 59.1 166.1 48 166.2V168.8C58.6 168.4 69.9 168.1 81.2 167.7C82.5 167.7 83.9 167.6 85.2 167.6C89.5 167.5 94 167.4 98.4 166.9C101.5 166.6 104.3 166.1 107 165.4C109.3 164.8 111.7 164 114.2 163.1V162.2C111.7 163.1 109.2 163.8 106.8 164.4C104.1 165 101.3 165.4 98.3 165.6Z" fill="#005FBD"/>
<path d="M98.1 169.8C96.3 169.9 94.3 169.9 92.1 169.9C91.3 169.9 90.4 169.9 89.6 169.9L81 169.8C75.1 169.8 69.3 169.7 63.8 169.7L48 169.8V172.4L63.9 172C69.4 171.9 75.2 171.7 81 171.6L89.6 171.5C92 171.5 95.1 171.4 98.2 171.2C101.3 171 104.1 170.7 106.8 170.3C109.2 169.9 111.7 169.4 114.2 168.8V167.9C111.7 168.5 109.1 169 106.7 169.3C103.9 169.5 101.2 169.7 98.1 169.8Z" fill="#005FBD"/>
<path d="M89.5 173.9L80.9 173.8C70 173.6 59.1 173.4 48 173.2V175.8C58.6 175.7 69.8 175.6 80.9 175.5L89.5 175.4C92.4 175.4 95.2 175.3 98.1 175.2C104 175 109.2 174.6 114.2 173.9V173C109.3 173.5 104 173.8 98.1 173.9C95.2 173.9 92.3 173.9 89.5 173.9Z" fill="#005FBD"/>
<path d="M114.1 178.5L48 176.8V179.4H114.1V178.5Z" fill="#005FBD"/>
<path d="M108.2 135C105.7 137 103.7 138.5 100.7 139.7C98 140.8 95.1 141.2 91.9 141.7C89.8 142 87.6 142.4 85.5 142.6C84.6 142.7 83.8 142.7 82.9 142.8L48 145.3V147.9L82.9 144.5L87.4 144.1C89.1 143.9 90.6 143.8 92 143.5C95.4 143 98.3 142.1 100.9 140.9C103.6 139.7 106.4 137.7 108.9 135.6C110.6 134.1 112.3 132.3 114.1 130.3V129.4C111.9 131.6 110.1 133.5 108.2 135Z" fill="#005FBD"/>
<path d="M142.203 113C142.203 113 154.103 131.9 156.303 135.4C158.503 138.9 161.003 141.6 169.803 143.5C178.603 145.4 182.403 146.2 182.403 146.2V146.9C182.403 146.9 176.803 145.7 169.603 144.1C162.403 142.5 159.503 142 156.203 137.4C153.503 133.6 142.203 117.5 142.203 117.5V113Z" fill="#005FBD"/>
<path d="M142.203 134.6C142.203 134.6 153.003 145.9 156.203 149.2C159.503 152.7 163.803 153.9 169.703 155C175.303 156 182.403 157.2 182.403 157.2V157.8C182.403 157.8 175.703 156.7 169.703 155.7C163.803 154.7 159.603 154.1 156.203 151C153.203 148.2 142.303 138 142.303 138L142.203 134.6Z" fill="#005FBD"/>
<path d="M142.203 139.8C142.203 139.8 152.503 149.4 156.203 152.6C159.603 155.6 162.303 156.5 169.703 157.9C177.103 159.2 182.403 160 182.403 160V160.7C182.403 160.7 175.703 159.6 169.703 158.6C163.703 157.6 159.803 157.3 156.203 154.3C152.003 150.9 142.203 142.9 142.203 142.9V139.8Z" fill="#005FBD"/>
<path d="M142.203 145.2C142.203 145.2 154.003 154.5 156.203 156.2C158.403 157.8 161.303 159.7 169.703 161C178.103 162.2 182.403 162.8 182.403 162.8V163.5C182.403 163.5 174.803 162.4 169.703 161.8C164.603 161.2 160.703 160.9 156.203 157.9C151.803 155 142.203 148.2 142.203 148.2V145.2Z" fill="#005FBD"/>
<path d="M142.203 150.4C142.203 150.4 154.003 158.3 156.203 159.5C158.403 160.7 161.103 162.8 169.703 163.9C178.303 165 182.403 165.5 182.403 165.5V166.2C182.403 166.2 175.303 165.4 169.703 164.8C164.103 164.2 160.303 163.4 156.203 161.1C152.103 158.8 142.203 153.1 142.203 153.1V150.4Z" fill="#005FBD"/>
<path d="M142.203 155.7C142.203 155.7 152.603 161.4 156.203 163.1C160.103 165.1 163.503 166 169.703 166.8C175.803 167.5 182.403 168.2 182.403 168.2V168.8C182.403 168.8 176.303 168.1 169.703 167.5C163.203 166.9 160.903 166.6 156.203 164.5C152.003 162.6 142.203 158.1 142.203 158.1V155.7Z" fill="#005FBD"/>
<path d="M142.202 161C142.202 161 150.402 164.5 156.202 166.8C161.902 169.1 166.202 169.3 169.702 169.6C171.202 169.8 182.302 170.9 182.302 170.9V171.5C182.302 171.5 175.702 171 169.602 170.4C163.602 169.9 161.002 169.6 156.102 168C151.202 166.4 142.102 163.2 142.102 163.2L142.202 161Z" fill="#005FBD"/>
<path d="M142.203 166.4C142.203 166.4 150.503 169 156.203 170.5C161.903 172 167.103 172.6 169.703 172.8C172.303 173 182.403 173.8 182.403 173.8V174.4C182.403 174.4 176.703 174 169.703 173.5C164.003 173.1 159.503 172.7 156.203 171.9C152.503 171.1 142.203 168.6 142.203 168.6V166.4Z" fill="#005FBD"/>
<path d="M142.203 171.7C142.203 171.7 149.003 172.9 156.203 174.1C161.603 175 168.903 175.6 169.703 175.6C170.503 175.6 182.403 176.5 182.403 176.5V177.1C182.403 177.1 174.803 176.7 169.703 176.4C164.403 176.1 159.203 175.8 156.203 175.5C149.503 174.8 142.203 173.9 142.203 173.9V171.7Z" fill="#005FBD"/>
<path d="M142.203 177.3C142.203 177.3 152.903 177.7 156.203 177.8C159.503 177.9 182.403 178.8 182.403 178.8V179.4H142.203V177.3Z" fill="#005FBD"/>
<path d="M169.697 146.4C159.997 144.3 157.797 140.8 156.197 138.6C154.597 136.4 142.297 118.4 142.297 118.4V122.5C142.797 123.1 153.297 136.9 156.297 140.7C159.597 145 164.797 146 169.797 147C174.797 148.1 182.497 149.6 182.497 149.6V149C182.397 149 172.197 147 169.697 146.4Z" fill="#005FBD"/>
<path d="M169.697 149.3C161.697 147.7 158.497 145.2 156.197 142.2C153.897 139.1 142.297 123.9 142.297 123.9V127.7C142.797 128.3 153.397 140.8 156.197 144.1C159.497 147.9 164.097 148.9 169.697 149.9C175.297 150.9 182.397 152.3 182.397 152.3V151.7C182.397 151.7 174.297 150.2 169.697 149.3Z" fill="#005FBD"/>
<path d="M169.703 152.2C161.403 150.6 159.703 149.3 156.203 145.4C154.003 143 142.703 129.7 142.203 129.1V132.6C142.203 132.6 152.703 143.8 156.103 147.2C160.503 151.6 164.703 151.9 169.603 152.8C174.503 153.7 182.303 155.1 182.303 155.1V154.5C182.403 154.5 173.003 152.9 169.703 152.2Z" fill="#005FBD"/>
<path d="M133.4 140.6H75.5V179.3H133.4V140.6Z" fill="#034DA1"/>
<path d="M105.098 146.1H107.098L105.498 147.4L106.098 149.4L104.498 148.2L102.898 149.4L103.498 147.4L101.898 146.1H103.898L104.498 144.1L105.098 146.1Z" fill="#FFF100"/>
<path d="M105.098 171.9H107.098L105.498 173.1L106.098 175L104.498 173.8L102.898 175L103.498 173.1L101.898 171.9H103.898L104.498 170L105.098 171.9Z" fill="#FFF100"/>
<path d="M111.497 170.2H113.497L111.897 171.4L112.497 173.3L110.897 172.1L109.297 173.3L109.897 171.4L108.297 170.2H110.297L110.897 168.3L111.497 170.2Z" fill="#FFF100"/>
<path d="M111.498 147.8H113.498L111.898 149L112.498 150.9L110.898 149.7L109.298 151L109.998 149L108.398 147.8H110.398L110.998 145.9L111.498 147.8Z" fill="#FFF100"/>
<path d="M116.302 152.599H118.302L116.702 153.799L117.302 155.699L115.702 154.499L114.102 155.699L114.702 153.799L113.102 152.599H115.102L115.702 150.699L116.302 152.599Z" fill="#FFF100"/>
<path d="M116.302 165.599H118.302L116.702 166.799L117.302 168.699L115.702 167.499L114.102 168.699L114.702 166.799L113.102 165.599H115.102L115.702 163.699L116.302 165.599Z" fill="#FFF100"/>
<path d="M118.097 159H120.097L118.497 160.2L119.097 162.1L117.497 160.9L115.897 162.1L116.497 160.2L114.797 159H116.797L117.397 157.1L118.097 159Z" fill="#FFF100"/>
<path d="M98.4969 147.8H100.497L98.8969 149L99.4969 150.9L97.9969 149.8L96.2969 151L96.8969 149.1L95.2969 147.9H97.2969L97.9969 146L98.4969 147.8Z" fill="#FFF100"/>
<path d="M93.9031 152.6H95.9031L94.3031 153.8L94.9031 155.7L93.3031 154.5L91.7031 155.7L92.3031 153.8L90.7031 152.6H92.7031L93.3031 150.7L93.9031 152.6Z" fill="#FFF100"/>
<path d="M92.2 159H94.2L92.6 160.2L93.2 162.1L91.6 160.9L90 162.1L90.6 160.2L89 159H91L91.6 157.1L92.2 159Z" fill="#FFF100"/>
<path d="M93.9031 165.6H95.9031L94.3031 166.8L94.9031 168.7L93.3031 167.5L91.7031 168.7L92.3031 166.8L90.7031 165.6H92.7031L93.3031 163.7L93.9031 165.6Z" fill="#FFF100"/>
<path d="M98.5984 170.3H100.598L98.9984 171.5L99.5984 173.4L97.9984 172.2L96.3984 173.4L96.9984 171.5L95.3984 170.3H97.3984L97.9984 168.4L98.5984 170.3Z" fill="#FFF100"/>
<path d="M48.2344 191.014C48.2344 190.66 48.3525 190.542 48.7068 190.542H57.447C57.8013 190.542 57.9194 190.66 57.9194 191.014V192.432C57.9194 192.668 57.8013 192.904 57.447 192.904H50.9509V197.038H56.7383C57.0927 197.038 57.2108 197.156 57.2108 197.51V198.928C57.2108 199.164 57.0927 199.4 56.7383 199.4H50.9509V204.125H57.5651C57.8013 204.125 58.0375 204.243 58.0375 204.597V206.014C58.0375 206.251 57.9194 206.487 57.5651 206.487H48.7068C48.3525 206.487 48.2344 206.369 48.2344 206.014V191.014Z" fill="#626366"/>
<path d="M69.9732 206.37H68.3196C68.2015 206.37 68.0834 206.37 67.9653 206.251C67.8472 206.133 67.8472 206.015 67.8472 205.897V205.07C67.611 205.188 67.3748 205.425 67.0204 205.543C66.6661 205.661 66.4299 205.897 66.0755 206.015C65.7212 206.133 65.3669 206.251 65.0126 206.37C64.6582 206.488 64.3039 206.488 63.9496 206.488C63.1228 206.488 62.5322 206.37 62.0598 206.133C61.5874 205.897 61.233 205.661 60.9968 205.188C60.7606 204.834 60.6425 204.362 60.5244 203.771C60.4063 203.181 60.4062 202.708 60.4062 201.999V195.031C60.4062 194.677 60.5244 194.558 60.8787 194.558H62.6504C62.8866 194.558 63.1228 194.677 63.1228 195.031V201.645C63.1228 201.999 63.1228 202.354 63.2409 202.59C63.2409 202.826 63.359 203.062 63.4771 203.299C63.5952 203.535 63.8314 203.653 63.9496 203.771C64.0677 203.889 64.422 203.889 64.7763 203.889C65.0125 203.889 65.2488 203.889 65.6031 203.771C65.9574 203.653 66.1936 203.535 66.548 203.417C66.9023 203.299 67.1385 203.181 67.3748 203.062C67.611 202.944 67.8472 202.826 67.9653 202.708V194.795C67.9653 194.677 67.9653 194.558 68.0834 194.44C68.2015 194.322 68.3196 194.322 68.4377 194.322H70.0913C70.4456 194.322 70.5637 194.44 70.5637 194.795V205.543C70.4456 206.133 70.3275 206.37 69.9732 206.37Z" fill="#626366"/>
<path d="M75.99 205.897C75.99 206.252 75.8719 206.37 75.5175 206.37H73.7459C73.3915 206.37 73.2734 206.252 73.2734 205.897V195.149C73.2734 194.795 73.3915 194.677 73.7459 194.677H75.3994C75.7537 194.677 75.8719 194.795 75.8719 195.149V196.212C75.99 196.094 76.2262 195.858 76.5805 195.74C76.8167 195.503 77.1711 195.385 77.5254 195.267C77.8797 195.149 78.2341 195.031 78.4703 194.795C78.8246 194.677 79.0608 194.559 79.4152 194.559C79.5333 194.559 79.6514 194.559 79.7695 194.559C79.8876 194.559 79.8876 194.677 80.0057 194.913L80.1238 196.448C80.1238 196.566 80.1238 196.803 80.1238 196.803C80.1238 196.921 80.0057 196.921 79.6514 197.039C79.2971 197.157 78.9427 197.157 78.5884 197.275C78.2341 197.393 77.8797 197.511 77.5254 197.511C77.1711 197.629 76.8167 197.748 76.5805 197.866C76.2262 197.984 75.99 198.102 75.8719 198.102V205.897H75.99Z" fill="#626366"/>
<path d="M91.6975 200.346C91.6975 201.055 91.6975 201.763 91.5794 202.472C91.4613 203.181 91.225 203.889 90.8707 204.48C90.5164 205.07 90.0439 205.543 89.3353 206.015C88.6266 206.37 87.6817 206.606 86.5006 206.606C85.3195 206.606 84.3746 206.37 83.666 206.015C82.9573 205.661 82.4849 205.188 82.1305 204.48C81.7762 203.889 81.54 203.181 81.54 202.472C81.4219 201.763 81.4219 201.055 81.4219 200.346C81.4219 199.755 81.4219 199.165 81.54 198.456C81.6581 197.748 81.8943 197.157 82.2486 196.566C82.603 195.976 83.0754 195.503 83.7841 195.031C84.4927 194.677 85.3195 194.44 86.5006 194.44C87.6817 194.44 88.6266 194.559 89.2172 194.913C89.9258 195.267 90.3982 195.74 90.7526 196.33C91.1069 196.921 91.3431 197.511 91.4612 198.22C91.5794 198.929 91.6975 199.637 91.6975 200.346ZM88.9809 200.464C88.9809 199.873 88.9809 199.283 88.8628 198.811C88.7447 198.338 88.6266 197.984 88.5085 197.629C88.2723 197.275 88.0361 197.039 87.6817 196.921C87.3274 196.803 86.9731 196.685 86.3825 196.685C85.9101 196.685 85.4376 196.803 85.2014 196.921C84.9652 197.039 84.6109 197.275 84.4927 197.629C84.2565 197.984 84.1384 198.338 84.1384 198.811C84.0203 199.283 84.0203 199.873 84.0203 200.464C84.0203 201.055 84.0203 201.645 84.1384 202.118C84.2565 202.59 84.3746 202.944 84.4927 203.299C84.6109 203.653 84.9652 203.889 85.2014 204.007C85.4376 204.125 85.9101 204.244 86.3825 204.244C86.9731 204.244 87.3274 204.125 87.6817 204.007C88.0361 203.889 88.2723 203.653 88.5085 203.299C88.7447 202.944 88.8628 202.59 88.8628 202.118C88.9809 201.645 88.9809 201.173 88.9809 200.464Z" fill="#626366"/>
<path d="M104.222 200.464C104.222 201.409 104.104 202.236 103.986 203.062C103.868 203.771 103.631 204.48 103.277 204.952C102.923 205.425 102.45 205.897 101.86 206.133C101.269 206.37 100.442 206.488 99.4974 206.488C99.1431 206.488 98.6707 206.488 98.0801 206.37C97.6077 206.251 97.0171 206.133 96.4265 206.015V210.149C96.4265 210.267 96.4266 210.385 96.3084 210.503C96.1903 210.622 96.0722 210.622 95.9541 210.622H94.3006C94.0643 210.622 93.9462 210.622 93.9462 210.503C93.9462 210.385 93.8281 210.267 93.8281 210.149V195.149C93.8281 194.795 93.9462 194.677 94.3006 194.677H95.9541C96.0722 194.677 96.1903 194.677 96.3084 194.795C96.4266 194.913 96.4265 195.031 96.4265 195.149V195.858H96.5447C96.7809 195.74 97.0171 195.622 97.2533 195.385C97.4895 195.267 97.8439 195.031 98.1982 194.913C98.5525 194.795 98.9069 194.677 99.2612 194.559C99.6155 194.44 99.9699 194.44 100.324 194.44C101.151 194.44 101.742 194.559 102.214 194.913C102.686 195.149 103.159 195.622 103.395 196.094C103.631 196.566 103.868 197.275 103.986 197.984C104.222 198.692 104.222 199.519 104.222 200.464ZM101.505 200.464C101.505 199.755 101.505 199.047 101.387 198.692C101.269 198.338 101.151 197.866 101.033 197.629C100.915 197.393 100.679 197.157 100.442 197.157C100.206 197.039 99.9699 197.039 99.6155 197.039C99.3793 197.039 99.1431 197.039 98.7888 197.157C98.4344 197.275 98.1982 197.275 97.8439 197.393C97.6076 197.511 97.2533 197.629 97.0171 197.748C96.7809 197.866 96.5447 197.984 96.3084 198.102V204.007C96.899 204.125 97.3714 204.244 97.7258 204.362C98.0801 204.48 98.5525 204.48 99.025 204.48C99.4974 204.48 99.8518 204.362 100.088 204.244C100.324 204.125 100.56 203.889 100.797 203.653C101.033 203.299 101.151 202.944 101.151 202.472C101.505 201.763 101.505 201.173 101.505 200.464Z" fill="#626366"/>
<path d="M108.824 201.172C108.824 201.762 108.942 202.235 109.06 202.707C109.178 203.062 109.415 203.416 109.651 203.652C109.887 203.888 110.123 204.006 110.478 204.125C110.832 204.243 111.186 204.243 111.777 204.243C112.249 204.243 112.722 204.243 113.312 204.125C113.903 204.006 114.375 204.006 114.848 204.006C115.084 204.006 115.202 204.006 115.32 204.006C115.438 204.006 115.438 204.125 115.556 204.361L115.674 205.188C115.674 205.306 115.674 205.542 115.674 205.66C115.674 205.778 115.556 205.896 115.32 206.014C115.084 206.132 114.848 206.251 114.493 206.251C114.139 206.251 113.903 206.369 113.548 206.487C113.194 206.605 112.84 206.605 112.485 206.605C112.131 206.605 111.777 206.605 111.541 206.605C110.359 206.605 109.533 206.487 108.824 206.132C108.115 205.778 107.643 205.306 107.289 204.833C106.934 204.243 106.698 203.652 106.58 202.943C106.462 202.235 106.344 201.526 106.344 200.699C106.344 200.109 106.344 199.518 106.462 198.81C106.58 198.101 106.816 197.392 107.171 196.802C107.525 196.211 107.997 195.621 108.706 195.266C109.415 194.794 110.241 194.676 111.422 194.676C112.485 194.676 113.312 194.794 114.021 195.148C114.73 195.503 115.202 195.857 115.556 196.329C115.911 196.802 116.147 197.392 116.265 197.983C116.383 198.573 116.501 199.282 116.501 199.873C116.501 200.345 116.501 200.699 116.265 200.936C116.029 201.172 115.793 201.29 115.32 201.29H108.824V201.172ZM111.186 196.566C110.714 196.566 110.359 196.684 110.123 196.802C109.887 196.92 109.651 197.156 109.415 197.392C109.178 197.629 109.06 197.983 109.06 198.337C108.942 198.692 108.942 199.046 108.942 199.518H113.667C113.667 199.164 113.667 198.81 113.548 198.455C113.43 198.101 113.312 197.865 113.194 197.51C113.076 197.156 112.84 197.038 112.485 196.92C112.013 196.684 111.659 196.566 111.186 196.566Z" fill="#626366"/>
<path d="M125.714 204.952C125.124 205.425 124.415 205.779 123.707 206.015C122.998 206.251 122.171 206.488 121.344 206.488C120.754 206.488 120.163 206.37 119.809 206.251C119.336 206.133 119.1 205.897 118.864 205.543C118.628 205.307 118.392 204.952 118.392 204.48C118.273 204.125 118.273 203.653 118.273 203.062C118.273 201.645 118.628 200.7 119.336 199.992C120.045 199.401 121.226 199.047 122.644 199.047H125.714V198.456C125.714 198.102 125.714 197.866 125.596 197.511C125.478 197.275 125.36 197.039 125.242 196.921C125.006 196.803 124.77 196.684 124.533 196.566C124.179 196.448 123.825 196.448 123.352 196.448C123.116 196.448 122.88 196.448 122.644 196.448C122.407 196.448 122.053 196.448 121.817 196.448C121.581 196.448 121.226 196.448 120.99 196.566C120.754 196.566 120.399 196.566 120.163 196.684C119.927 196.684 119.809 196.684 119.691 196.684C119.573 196.684 119.573 196.566 119.455 196.33L119.218 195.503C119.218 195.385 119.218 195.267 119.218 195.149C119.336 195.031 119.455 194.913 119.691 194.795C119.927 194.677 120.281 194.677 120.636 194.558C120.99 194.44 121.344 194.44 121.699 194.44C122.053 194.44 122.407 194.322 122.762 194.322C123.116 194.322 123.47 194.322 123.707 194.322C124.77 194.322 125.596 194.44 126.187 194.677C126.777 194.913 127.25 195.149 127.604 195.503C127.958 195.858 128.077 196.33 128.195 196.921C128.313 197.511 128.313 198.102 128.313 198.692V203.299C128.313 203.535 128.313 203.771 128.313 203.889C128.313 204.007 128.431 204.125 128.431 204.244C128.431 204.362 128.549 204.362 128.667 204.362C128.785 204.362 128.903 204.362 129.14 204.48C129.258 204.48 129.376 204.48 129.494 204.598C129.612 204.598 129.612 204.716 129.612 204.834V205.779C129.612 206.015 129.376 206.251 129.021 206.251C128.785 206.251 128.667 206.251 128.431 206.37C128.195 206.37 128.077 206.37 127.84 206.37C127.25 206.37 126.895 206.251 126.541 206.015C126.069 205.897 125.832 205.543 125.714 204.952ZM125.596 201.055H122.762C122.171 201.055 121.699 201.173 121.344 201.527C120.99 201.763 120.872 202.354 120.872 203.062C120.872 203.535 120.99 203.889 121.226 204.125C121.462 204.362 121.817 204.48 122.407 204.48C122.644 204.48 122.88 204.48 123.234 204.362C123.588 204.244 123.825 204.244 124.179 204.125C124.533 204.007 124.769 203.889 125.006 203.771C125.242 203.653 125.596 203.535 125.714 203.417V201.055H125.596Z" fill="#626366"/>
<path d="M141.189 206.251C141.071 206.369 140.953 206.369 140.834 206.369H139.063C138.708 206.369 138.59 206.251 138.59 205.896V199.282C138.59 198.573 138.472 197.983 138.236 197.629C138 197.156 137.527 197.038 136.819 197.038C136.582 197.038 136.346 197.038 135.992 197.156C135.638 197.274 135.401 197.392 135.047 197.51C134.693 197.629 134.456 197.747 134.22 197.865C133.984 197.983 133.748 198.101 133.63 198.219V206.132C133.63 206.487 133.512 206.605 133.157 206.605H131.504C131.149 206.605 131.031 206.487 131.031 206.132V195.384C131.031 195.03 131.149 194.912 131.504 194.912H133.157C133.512 194.912 133.63 195.03 133.63 195.384V196.093C133.866 195.975 134.102 195.739 134.456 195.621C134.811 195.503 135.047 195.266 135.401 195.148C135.756 195.03 136.11 194.912 136.464 194.794C136.819 194.676 137.173 194.676 137.527 194.676C138.354 194.676 138.945 194.794 139.417 195.03C139.89 195.266 140.244 195.621 140.48 195.975C140.716 196.329 140.834 196.92 140.953 197.392C141.071 197.983 141.071 198.455 141.071 199.164V206.014C141.189 206.014 141.189 206.132 141.189 206.251Z" fill="#626366"/>
<path d="M48 222.551C48 221.488 48.1181 220.543 48.2362 219.598C48.3543 218.653 48.7087 217.708 49.1811 217C49.6535 216.291 50.2441 215.582 51.0709 215.11C51.8976 214.638 52.9606 214.401 54.378 214.401C54.6142 214.401 54.9685 214.401 55.3228 214.401C55.6772 214.401 56.0315 214.519 56.5039 214.519C56.8583 214.519 57.3307 214.638 57.685 214.756C58.0394 214.874 58.3937 214.992 58.748 215.11C58.9843 215.228 59.1024 215.228 59.1024 215.346C59.1024 215.464 59.2205 215.582 59.2205 215.819L58.9843 216.764C58.9843 216.882 58.8661 217 58.8661 217.118C58.748 217.236 58.6299 217.236 58.3937 217.118C57.8032 217 57.2126 217 56.5039 216.882C55.7953 216.764 55.2047 216.764 54.6142 216.764C53.7874 216.764 53.1969 216.882 52.7244 217.236C52.252 217.59 51.8976 217.945 51.5433 218.417C51.3071 218.89 51.0709 219.598 51.0709 220.189C51.0709 220.779 50.9528 221.606 50.9528 222.433C50.9528 223.26 50.9528 223.968 51.0709 224.559C51.189 225.268 51.3071 225.858 51.6614 226.33C51.8976 226.803 52.252 227.275 52.8425 227.512C53.315 227.748 53.9055 227.984 54.7323 227.984C55.4409 227.984 56.0315 227.984 56.6221 227.866C57.2126 227.748 57.8032 227.748 58.5118 227.63C58.748 227.63 58.8661 227.63 58.9843 227.63C59.1024 227.748 59.1024 227.748 59.2205 227.984L59.4567 228.929C59.5748 229.283 59.4567 229.519 59.1024 229.638C58.8662 229.756 58.5118 229.874 58.0394 229.992C57.685 230.11 57.2126 230.11 56.8583 230.228C56.5039 230.346 56.0315 230.346 55.6772 230.346C55.3228 230.346 54.9685 230.346 54.6142 230.346C53.315 230.346 52.252 230.11 51.4252 229.638C50.5984 229.165 49.8898 228.575 49.5354 227.866C49.063 227.157 48.7087 226.33 48.5906 225.386C48.1181 224.559 48 223.614 48 222.551Z" fill="#626366"/>
<path d="M71.2678 224.323C71.2678 225.032 71.2678 225.741 71.1497 226.449C71.0316 227.158 70.7953 227.867 70.441 228.457C70.0867 229.048 69.6142 229.52 68.9056 229.993C68.1969 230.347 67.252 230.583 66.0709 230.583C64.8898 230.583 63.945 230.347 63.2363 229.993C62.5276 229.638 62.0552 229.166 61.7009 228.457C61.3465 227.867 61.1103 227.158 61.1103 226.449C60.9922 225.741 60.9922 225.032 60.9922 224.323C60.9922 223.733 60.9922 223.142 61.1103 222.434C61.2284 221.725 61.4646 221.135 61.819 220.544C62.1733 219.953 62.6457 219.481 63.3544 219.009C64.0631 218.654 64.8898 218.418 66.0709 218.418C67.252 218.418 68.1969 218.536 68.7875 218.89C69.4961 219.245 69.9686 219.717 70.3229 220.308C70.6772 220.898 70.9134 221.489 71.0316 222.197C71.1497 222.906 71.2678 223.615 71.2678 224.323ZM68.5513 224.442C68.5513 223.851 68.5512 223.26 68.4331 222.788C68.315 222.316 68.1969 221.961 68.0788 221.607C67.8426 221.253 67.6064 221.016 67.252 220.898C66.8977 220.78 66.5434 220.662 65.9528 220.662C65.4804 220.662 65.0079 220.78 64.7717 220.898C64.5355 221.016 64.1812 221.253 64.0631 221.607C63.8268 221.961 63.7087 222.316 63.7087 222.788C63.5906 223.26 63.5906 223.851 63.5906 224.442C63.5906 225.032 63.5906 225.623 63.7087 226.095C63.8268 226.568 63.945 226.922 64.0631 227.276C64.1812 227.631 64.5355 227.867 64.7717 227.985C65.0079 228.103 65.4804 228.221 65.9528 228.221C66.5434 228.221 66.8977 228.103 67.252 227.985C67.6064 227.867 67.8426 227.631 68.0788 227.276C68.315 226.922 68.4331 226.568 68.4331 226.095C68.4331 225.623 68.5513 225.15 68.5513 224.442Z" fill="#626366"/>
<path d="M90.5235 230.229C90.5235 230.347 90.4054 230.347 90.1692 230.347H88.5156C88.1613 230.347 88.0432 230.229 88.0432 229.875V223.142C88.0432 222.316 87.9251 221.607 87.6889 221.371C87.4526 221.016 86.9802 220.898 86.3896 220.898C86.1534 220.898 85.9172 220.898 85.681 221.016C85.4448 221.135 85.0904 221.135 84.8542 221.253C84.618 221.371 84.2636 221.489 84.0274 221.607C83.7912 221.725 83.555 221.843 83.3188 221.961C83.3188 222.079 83.3188 222.197 83.3188 222.434C83.3188 222.67 83.3188 222.906 83.3188 223.142V229.875C83.3188 229.993 83.3188 230.111 83.2007 230.229C83.0826 230.347 82.9644 230.347 82.8463 230.347H81.0747C80.8385 230.347 80.7203 230.229 80.7203 229.875V223.024C80.7203 222.316 80.6022 221.725 80.366 221.371C80.1298 221.016 79.7755 220.898 79.1849 220.898C78.9487 220.898 78.7125 220.898 78.4763 221.016C78.24 221.135 78.0038 221.135 77.6495 221.253C77.4133 221.371 77.0589 221.489 76.8227 221.607C76.5865 221.725 76.3503 221.843 76.114 221.961V229.875C76.114 230.229 75.9959 230.347 75.6416 230.347H73.9881C73.7518 230.347 73.5156 230.229 73.5156 229.875V219.127C73.5156 218.772 73.6337 218.654 73.9881 218.654H75.6416C75.9959 218.654 76.114 218.772 76.114 219.127V219.835C76.3503 219.717 76.5865 219.481 76.8227 219.363C77.0589 219.245 77.4133 219.009 77.6495 218.89C77.8857 218.772 78.24 218.654 78.5944 218.536C78.9487 218.418 79.1849 218.418 79.5392 218.418C80.2479 218.418 80.8385 218.536 81.429 218.772C82.0196 219.009 82.492 219.481 82.8463 220.072C83.4369 219.599 84.1455 219.245 84.8542 218.89C85.5629 218.536 86.2715 218.418 87.0983 218.418C87.9251 218.418 88.5156 218.536 88.9881 218.772C89.4605 219.009 89.8148 219.363 90.0511 219.717C90.2873 220.072 90.4054 220.544 90.5235 221.135C90.6416 221.725 90.6416 222.197 90.6416 222.788V229.875C90.5235 229.993 90.5235 230.111 90.5235 230.229Z" fill="#626366"/>
<path d="M110.008 230.229C110.008 230.347 109.89 230.347 109.654 230.347H108C107.646 230.347 107.528 230.229 107.528 229.875V223.142C107.528 222.316 107.409 221.607 107.173 221.371C106.937 221.016 106.465 220.898 105.874 220.898C105.638 220.898 105.402 220.898 105.165 221.016C104.929 221.135 104.575 221.135 104.339 221.253C104.102 221.371 103.748 221.489 103.512 221.607C103.276 221.725 103.039 221.843 102.803 221.961C102.803 222.079 102.803 222.197 102.803 222.434C102.803 222.67 102.803 222.906 102.803 223.142V229.875C102.803 229.993 102.803 230.111 102.685 230.229C102.567 230.347 102.449 230.347 102.331 230.347H100.559C100.323 230.347 100.205 230.229 100.205 229.875V223.024C100.205 222.316 100.087 221.725 99.8504 221.371C99.6142 221.016 99.2598 220.898 98.6693 220.898C98.4331 220.898 98.1968 220.898 97.9606 221.016C97.7244 221.135 97.4882 221.135 97.1339 221.253C96.7795 221.371 96.5433 221.489 96.3071 221.607C96.0709 221.725 95.8346 221.843 95.5984 221.961V229.875C95.5984 230.229 95.4803 230.347 95.126 230.347H93.4724C93.2362 230.347 93 230.229 93 229.875V219.127C93 218.772 93.1181 218.654 93.4724 218.654H95.126C95.4803 218.654 95.5984 218.772 95.5984 219.127V219.835C95.8346 219.717 96.0709 219.481 96.3071 219.363C96.5433 219.245 96.8976 219.009 97.1339 218.89C97.4882 218.772 97.7244 218.654 98.0787 218.536C98.4331 218.418 98.6693 218.418 99.0236 218.418C99.7323 218.418 100.323 218.536 100.913 218.772C101.504 219.009 101.976 219.481 102.331 220.072C102.921 219.599 103.63 219.245 104.339 218.89C105.047 218.536 105.756 218.418 106.583 218.418C107.409 218.418 108 218.536 108.472 218.772C108.945 219.009 109.299 219.363 109.535 219.717C109.772 220.072 109.89 220.544 110.008 221.135C110.126 221.725 110.126 222.197 110.126 222.788V229.875C110.126 229.993 110.008 230.111 110.008 230.229Z" fill="#626366"/>
<path d="M115.678 215.582C115.678 215.819 115.678 215.937 115.678 216.173C115.678 216.291 115.56 216.527 115.442 216.645C115.324 216.764 115.206 216.882 114.97 217C114.733 217.118 114.497 217.118 114.261 217.118C113.907 217.118 113.671 217.118 113.552 217C113.316 216.882 113.198 216.764 113.08 216.645C112.962 216.527 112.962 216.409 112.844 216.173C112.844 216.055 112.844 215.819 112.844 215.701C112.844 215.346 112.962 214.992 113.08 214.756C113.316 214.519 113.671 214.401 114.261 214.401C114.852 214.401 115.206 214.519 115.442 214.756C115.56 214.874 115.678 215.228 115.678 215.582ZM115.56 229.874C115.56 229.992 115.56 230.11 115.442 230.228C115.442 230.346 115.324 230.346 115.088 230.346H113.434C113.08 230.346 112.962 230.228 112.962 229.874V219.126C112.962 218.771 113.08 218.653 113.434 218.653H115.088C115.206 218.653 115.324 218.653 115.442 218.771C115.442 218.89 115.56 219.008 115.56 219.126V229.874Z" fill="#626366"/>
<path d="M127.133 226.804C127.133 227.512 127.015 228.103 126.778 228.575C126.542 229.048 126.188 229.402 125.715 229.756C125.243 229.993 124.77 230.229 124.18 230.347C123.589 230.465 122.999 230.583 122.408 230.583C121.818 230.583 121.109 230.583 120.518 230.465C119.81 230.347 119.219 230.229 118.747 230.111C118.511 229.993 118.392 229.875 118.274 229.756C118.156 229.638 118.156 229.52 118.274 229.284L118.392 228.457C118.392 228.221 118.511 228.103 118.629 228.103C118.747 228.103 118.865 228.103 119.101 228.103C119.337 228.103 119.692 228.221 119.928 228.221C120.282 228.221 120.518 228.221 120.873 228.339C121.227 228.339 121.463 228.339 121.7 228.457C121.936 228.457 122.172 228.457 122.408 228.457C123.117 228.457 123.707 228.339 124.062 228.103C124.416 227.867 124.534 227.512 124.534 227.04C124.534 226.804 124.534 226.568 124.416 226.331C124.298 226.095 124.298 225.977 124.062 225.859C123.826 225.741 123.707 225.623 123.471 225.623C123.235 225.505 122.881 225.505 122.526 225.386C121.936 225.268 121.345 225.15 120.873 225.032C120.4 224.914 119.928 224.678 119.455 224.442C119.101 224.205 118.747 223.851 118.511 223.497C118.274 223.142 118.156 222.552 118.156 221.961C118.156 220.78 118.511 219.953 119.337 219.245C120.164 218.654 121.227 218.3 122.526 218.3C122.763 218.3 122.999 218.3 123.353 218.3C123.707 218.3 123.944 218.3 124.298 218.418C124.652 218.418 124.889 218.536 125.243 218.536C125.597 218.536 125.833 218.654 126.07 218.772C126.424 218.89 126.66 219.127 126.542 219.481L126.306 220.308C126.306 220.426 126.188 220.544 126.07 220.662C125.952 220.662 125.833 220.662 125.597 220.662C125.125 220.544 124.534 220.544 123.944 220.426C123.353 220.426 122.881 220.308 122.408 220.308C121.7 220.308 121.109 220.426 120.873 220.662C120.637 220.898 120.518 221.253 120.518 221.725C120.518 222.197 120.637 222.434 120.991 222.67C121.345 222.788 121.818 222.906 122.526 223.024C123.117 223.142 123.589 223.26 124.18 223.379C124.77 223.497 125.125 223.733 125.597 223.969C125.952 224.205 126.306 224.56 126.542 225.032C127.015 225.505 127.133 226.095 127.133 226.804Z" fill="#626366"/>
<path d="M138.008 226.804C138.008 227.512 137.89 228.103 137.653 228.575C137.417 229.048 137.063 229.402 136.59 229.756C136.118 229.993 135.645 230.229 135.055 230.347C134.464 230.465 133.874 230.583 133.283 230.583C132.693 230.583 131.984 230.583 131.393 230.465C130.685 230.347 130.094 230.229 129.622 230.111C129.386 229.993 129.267 229.875 129.149 229.756C129.031 229.638 129.031 229.52 129.149 229.284L129.267 228.457C129.267 228.221 129.386 228.103 129.504 228.103C129.622 228.103 129.74 228.103 129.976 228.103C130.212 228.103 130.567 228.221 130.803 228.221C131.157 228.221 131.393 228.221 131.748 228.339C132.102 228.339 132.338 228.339 132.575 228.457C132.811 228.457 133.047 228.457 133.283 228.457C133.992 228.457 134.582 228.339 134.937 228.103C135.291 227.867 135.409 227.512 135.409 227.04C135.409 226.804 135.409 226.568 135.291 226.331C135.173 226.095 135.173 225.977 134.937 225.859C134.701 225.741 134.582 225.623 134.346 225.623C134.11 225.505 133.756 225.505 133.401 225.386C132.811 225.268 132.22 225.15 131.748 225.032C131.275 224.914 130.803 224.678 130.33 224.442C129.976 224.205 129.622 223.851 129.386 223.497C129.149 223.142 129.031 222.552 129.031 221.961C129.031 220.78 129.386 219.953 130.212 219.245C131.039 218.654 132.102 218.3 133.401 218.3C133.638 218.3 133.874 218.3 134.228 218.3C134.582 218.3 134.819 218.3 135.173 218.418C135.527 218.418 135.764 218.536 136.118 218.536C136.472 218.536 136.708 218.654 136.945 218.772C137.299 218.89 137.535 219.127 137.417 219.481L137.181 220.308C137.181 220.426 137.063 220.544 136.945 220.662C136.827 220.662 136.708 220.662 136.472 220.662C136 220.544 135.409 220.544 134.819 220.426C134.228 220.426 133.756 220.308 133.283 220.308C132.575 220.308 131.984 220.426 131.748 220.662C131.512 220.898 131.393 221.253 131.393 221.725C131.393 222.197 131.512 222.434 131.866 222.67C132.22 222.788 132.693 222.906 133.401 223.024C133.992 223.142 134.464 223.26 135.055 223.379C135.645 223.497 136 223.733 136.472 223.969C136.827 224.205 137.181 224.56 137.417 225.032C137.89 225.505 138.008 226.095 138.008 226.804Z" fill="#626366"/>
<path d="M143.319 215.582C143.319 215.819 143.319 215.937 143.319 216.173C143.319 216.291 143.201 216.527 143.083 216.645C142.965 216.764 142.847 216.882 142.61 217C142.374 217.118 142.138 217.118 141.902 217.118C141.547 217.118 141.311 217.118 141.193 217C140.957 216.882 140.839 216.764 140.721 216.645C140.602 216.527 140.602 216.409 140.484 216.173C140.484 216.055 140.484 215.819 140.484 215.701C140.484 215.346 140.602 214.992 140.721 214.756C140.957 214.519 141.311 214.401 141.902 214.401C142.492 214.401 142.847 214.519 143.083 214.756C143.201 214.874 143.319 215.228 143.319 215.582ZM143.201 229.874C143.201 229.992 143.201 230.11 143.083 230.228C143.083 230.346 142.965 230.346 142.728 230.346H141.075C140.721 230.346 140.602 230.228 140.602 229.874V219.126C140.602 218.771 140.721 218.653 141.075 218.653H142.728C142.847 218.653 142.965 218.653 143.083 218.771C143.083 218.89 143.201 219.008 143.201 219.126V229.874Z" fill="#626366"/>
<path d="M156.182 224.323C156.182 225.032 156.182 225.741 156.064 226.449C155.946 227.158 155.709 227.867 155.355 228.457C155.001 229.048 154.528 229.52 153.82 229.993C153.111 230.347 152.166 230.583 150.985 230.583C149.804 230.583 148.859 230.347 148.15 229.993C147.442 229.638 146.969 229.166 146.615 228.457C146.261 227.867 146.024 227.158 146.024 226.449C145.906 225.741 145.906 225.032 145.906 224.323C145.906 223.733 145.906 223.142 146.024 222.434C146.142 221.725 146.379 221.135 146.733 220.544C147.087 219.953 147.56 219.481 148.268 219.009C148.977 218.654 149.804 218.418 150.985 218.418C152.166 218.418 153.111 218.536 153.702 218.89C154.41 219.245 154.883 219.717 155.237 220.308C155.591 220.898 155.828 221.489 155.946 222.197C156.064 222.906 156.182 223.615 156.182 224.323ZM153.465 224.442C153.465 223.851 153.465 223.26 153.347 222.788C153.229 222.316 153.111 221.961 152.993 221.607C152.757 221.253 152.52 221.016 152.166 220.898C151.812 220.78 151.457 220.662 150.867 220.662C150.394 220.662 149.922 220.78 149.686 220.898C149.45 221.016 149.095 221.253 148.977 221.607C148.741 221.961 148.623 222.316 148.623 222.788C148.505 223.26 148.505 223.851 148.505 224.442C148.505 225.032 148.505 225.623 148.623 226.095C148.741 226.568 148.859 226.922 148.977 227.276C149.095 227.631 149.45 227.867 149.686 227.985C149.922 228.103 150.394 228.221 150.867 228.221C151.457 228.221 151.812 228.103 152.166 227.985C152.52 227.867 152.757 227.631 152.993 227.276C153.229 226.922 153.347 226.568 153.347 226.095C153.347 225.623 153.465 225.15 153.465 224.442Z" fill="#626366"/>
<path d="M168.47 230.229C168.352 230.347 168.234 230.347 168.116 230.347H166.344C165.99 230.347 165.872 230.229 165.872 229.875V223.26C165.872 222.552 165.753 221.961 165.517 221.607C165.281 221.135 164.809 221.016 164.1 221.016C163.864 221.016 163.627 221.016 163.273 221.135C162.919 221.253 162.683 221.371 162.328 221.489C161.974 221.607 161.738 221.725 161.501 221.843C161.265 221.961 161.029 222.079 160.911 222.197V229.875C160.911 230.229 160.793 230.347 160.438 230.347H158.785C158.431 230.347 158.312 230.229 158.312 229.875V219.127C158.312 218.772 158.431 218.654 158.785 218.654H160.438C160.793 218.654 160.911 218.772 160.911 219.127V219.835C161.147 219.717 161.383 219.481 161.738 219.363C162.092 219.245 162.328 219.009 162.683 218.89C163.037 218.772 163.391 218.654 163.746 218.536C164.1 218.418 164.454 218.418 164.809 218.418C165.635 218.418 166.226 218.536 166.698 218.772C167.171 219.009 167.525 219.363 167.761 219.717C167.998 220.072 168.116 220.662 168.234 221.135C168.352 221.725 168.352 222.197 168.352 222.906V229.875C168.588 229.993 168.47 230.111 168.47 230.229Z" fill="#626366"/>
<path d="M183 185H179V231H183V185Z" fill="#034DA1"/>
<path d="M216.812 187.136L215.875 190.615H217.14L217.803 187.136H216.812ZM219.464 187.136L218.527 190.615H219.792L220.455 187.136H219.464ZM226.013 197V188.243H229.123V187.136H221.672V188.243H224.782V197H226.013ZM230.299 197H231.488V192.857C231.488 191.627 232.22 190.82 233.402 190.82C234.517 190.82 235.084 191.497 235.084 192.625V197H236.273V192.406C236.273 190.82 235.33 189.768 233.771 189.768C232.691 189.768 231.912 190.232 231.516 191.025H231.488V187.136H230.299V197ZM242.501 194.963C242.303 195.633 241.64 196.091 240.737 196.091C239.459 196.091 238.659 195.195 238.659 193.835V193.767H243.759V193.315C243.759 191.162 242.576 189.768 240.655 189.768C238.693 189.768 237.436 191.265 237.436 193.473C237.436 195.708 238.673 197.123 240.71 197.123C242.262 197.123 243.465 196.207 243.67 194.963H242.501ZM240.635 190.8C241.756 190.8 242.501 191.647 242.528 192.837H238.666C238.741 191.654 239.521 190.8 240.635 190.8ZM251.367 197.123C253.186 197.123 254.389 195.681 254.389 193.445C254.389 191.217 253.179 189.768 251.388 189.768C250.383 189.768 249.556 190.267 249.111 191.08H249.084V187.136H247.895V197H249.029V195.797H249.057C249.515 196.617 250.328 197.123 251.367 197.123ZM251.135 190.813C252.393 190.813 253.172 191.832 253.172 193.445C253.172 195.072 252.393 196.077 251.135 196.077C249.932 196.077 249.077 195.031 249.077 193.445C249.077 191.866 249.932 190.813 251.135 190.813ZM260.315 194.963C260.117 195.633 259.454 196.091 258.552 196.091C257.273 196.091 256.474 195.195 256.474 193.835V193.767H261.573V193.315C261.573 191.162 260.391 189.768 258.47 189.768C256.508 189.768 255.25 191.265 255.25 193.473C255.25 195.708 256.487 197.123 258.524 197.123C260.076 197.123 261.279 196.207 261.484 194.963H260.315ZM258.449 190.8C259.57 190.8 260.315 191.647 260.343 192.837H256.48C256.556 191.654 257.335 190.8 258.449 190.8ZM262.838 197H264.027V187.136H262.838V197ZM266.29 188.626C266.707 188.626 267.035 188.291 267.035 187.881C267.035 187.464 266.707 187.136 266.29 187.136C265.88 187.136 265.545 187.464 265.545 187.881C265.545 188.291 265.88 188.626 266.29 188.626ZM265.695 197H266.885V189.891H265.695V197ZM273.208 194.963C273.01 195.633 272.347 196.091 271.444 196.091C270.166 196.091 269.366 195.195 269.366 193.835V193.767H274.466V193.315C274.466 191.162 273.283 189.768 271.362 189.768C269.4 189.768 268.143 191.265 268.143 193.473C268.143 195.708 269.38 197.123 271.417 197.123C272.969 197.123 274.172 196.207 274.377 194.963H273.208ZM271.342 190.8C272.463 190.8 273.208 191.647 273.235 192.837H269.373C269.448 191.654 270.228 190.8 271.342 190.8ZM276.052 197H277.241V190.868H278.69V189.891H277.234V189.104C277.234 188.4 277.542 188.059 278.185 188.059C278.383 188.059 278.581 188.079 278.725 188.1V187.136C278.554 187.108 278.267 187.081 278 187.081C276.688 187.081 276.052 187.73 276.052 189.098V189.891H275.061V190.868H276.052V197ZM283.175 188.175V189.891H282.115V190.868H283.175V195.154C283.175 196.521 283.681 197.055 284.986 197.055C285.267 197.055 285.595 197.034 285.738 197V196.002C285.656 196.016 285.383 196.036 285.246 196.036C284.638 196.036 284.364 195.742 284.364 195.093V190.868H285.745V189.891H284.364V188.175H283.175ZM287.078 197H288.268V192.857C288.268 191.627 288.999 190.82 290.182 190.82C291.296 190.82 291.863 191.497 291.863 192.625V197H293.053V192.406C293.053 190.82 292.109 189.768 290.551 189.768C289.471 189.768 288.691 190.232 288.295 191.025H288.268V187.136H287.078V197ZM296.642 197.123C297.599 197.123 298.501 196.59 298.925 195.776H298.952V197H300.08V192.085C300.08 190.67 299.027 189.768 297.359 189.768C295.678 189.768 294.625 190.711 294.543 191.941H295.691C295.842 191.244 296.416 190.813 297.332 190.813C298.316 190.813 298.891 191.333 298.891 192.201V192.796L296.854 192.912C295.213 193.008 294.276 193.773 294.276 194.99C294.276 196.269 295.227 197.123 296.642 197.123ZM296.908 196.111C296.054 196.111 295.486 195.667 295.486 194.99C295.486 194.32 296.033 193.896 296.99 193.835L298.891 193.719V194.3C298.891 195.325 298.029 196.111 296.908 196.111ZM301.974 188.175V189.891H300.914V190.868H301.974V195.154C301.974 196.521 302.479 197.055 303.785 197.055C304.065 197.055 304.394 197.034 304.537 197V196.002C304.455 196.016 304.182 196.036 304.045 196.036C303.437 196.036 303.163 195.742 303.163 195.093V190.868H304.544V189.891H303.163V188.175H301.974ZM314.593 192.222C314.442 190.943 313.383 189.768 311.605 189.768C309.644 189.768 308.338 191.203 308.338 193.445C308.338 195.735 309.65 197.123 311.619 197.123C313.232 197.123 314.422 196.125 314.606 194.71H313.438C313.232 195.564 312.597 196.077 311.626 196.077C310.396 196.077 309.548 195.1 309.548 193.445C309.548 191.832 310.382 190.813 311.612 190.813C312.658 190.813 313.26 191.449 313.431 192.222H314.593ZM320.417 194.963C320.219 195.633 319.556 196.091 318.653 196.091C317.375 196.091 316.575 195.195 316.575 193.835V193.767H321.675V193.315C321.675 191.162 320.492 189.768 318.571 189.768C316.609 189.768 315.352 191.265 315.352 193.473C315.352 195.708 316.589 197.123 318.626 197.123C320.178 197.123 321.381 196.207 321.586 194.963H320.417ZM318.551 190.8C319.672 190.8 320.417 191.647 320.444 192.837H316.582C316.657 191.654 317.437 190.8 318.551 190.8ZM322.878 197H324.067V192.57C324.067 191.565 324.669 190.902 325.592 190.902C325.879 190.902 326.132 190.937 326.228 190.971V189.815C326.132 189.802 325.954 189.768 325.749 189.768C324.915 189.768 324.259 190.267 324.026 191.053H323.999V189.891H322.878V197ZM327.854 188.175V189.891H326.795V190.868H327.854V195.154C327.854 196.521 328.36 197.055 329.666 197.055C329.946 197.055 330.274 197.034 330.418 197V196.002C330.336 196.016 330.062 196.036 329.926 196.036C329.317 196.036 329.044 195.742 329.044 195.093V190.868H330.425V189.891H329.044V188.175H327.854ZM333.638 197.123C334.595 197.123 335.497 196.59 335.921 195.776H335.948V197H337.076V192.085C337.076 190.67 336.023 189.768 334.355 189.768C332.674 189.768 331.621 190.711 331.539 191.941H332.688C332.838 191.244 333.412 190.813 334.328 190.813C335.312 190.813 335.887 191.333 335.887 192.201V192.796L333.85 192.912C332.209 193.008 331.272 193.773 331.272 194.99C331.272 196.269 332.223 197.123 333.638 197.123ZM333.904 196.111C333.05 196.111 332.482 195.667 332.482 194.99C332.482 194.32 333.029 193.896 333.986 193.835L335.887 193.719V194.3C335.887 195.325 335.025 196.111 333.904 196.111ZM339.243 188.626C339.66 188.626 339.988 188.291 339.988 187.881C339.988 187.464 339.66 187.136 339.243 187.136C338.833 187.136 338.498 187.464 338.498 187.881C338.498 188.291 338.833 188.626 339.243 188.626ZM338.648 197H339.838V189.891H338.648V197ZM341.444 197H342.634V192.816C342.634 191.613 343.365 190.82 344.486 190.82C345.58 190.82 346.12 191.449 346.12 192.598V197H347.31V192.386C347.31 190.772 346.407 189.768 344.849 189.768C343.748 189.768 342.989 190.26 342.593 191.025H342.565V189.891H341.444V197ZM356.415 194.963C356.217 195.633 355.554 196.091 354.651 196.091C353.373 196.091 352.573 195.195 352.573 193.835V193.767H357.673V193.315C357.673 191.162 356.49 189.768 354.569 189.768C352.607 189.768 351.35 191.265 351.35 193.473C351.35 195.708 352.587 197.123 354.624 197.123C356.176 197.123 357.379 196.207 357.584 194.963H356.415ZM354.549 190.8C355.67 190.8 356.415 191.647 356.442 192.837H352.58C352.655 191.654 353.435 190.8 354.549 190.8ZM364.707 189.891H363.47L361.501 195.735H361.474L359.512 189.891H358.261L360.879 197H362.096L364.707 189.891ZM370.155 194.963C369.957 195.633 369.294 196.091 368.392 196.091C367.113 196.091 366.313 195.195 366.313 193.835V193.767H371.413V193.315C371.413 191.162 370.23 189.768 368.31 189.768C366.348 189.768 365.09 191.265 365.09 193.473C365.09 195.708 366.327 197.123 368.364 197.123C369.916 197.123 371.119 196.207 371.324 194.963H370.155ZM368.289 190.8C369.41 190.8 370.155 191.647 370.183 192.837H366.32C366.396 191.654 367.175 190.8 368.289 190.8ZM372.616 197H373.806V192.816C373.806 191.613 374.537 190.82 375.658 190.82C376.752 190.82 377.292 191.449 377.292 192.598V197H378.481V192.386C378.481 190.772 377.579 189.768 376.021 189.768C374.92 189.768 374.161 190.26 373.765 191.025H373.737V189.891H372.616V197ZM380.382 188.175V189.891H379.322V190.868H380.382V195.154C380.382 196.521 380.888 197.055 382.193 197.055C382.474 197.055 382.802 197.034 382.945 197V196.002C382.863 196.016 382.59 196.036 382.453 196.036C381.845 196.036 381.571 195.742 381.571 195.093V190.868H382.952V189.891H381.571V188.175H380.382ZM384.101 191.853C384.101 192.878 384.75 193.5 386.09 193.821L387.218 194.095C388.031 194.293 388.312 194.587 388.312 195.1C388.312 195.742 387.717 196.152 386.753 196.152C385.789 196.152 385.242 195.763 385.099 194.949H383.909C384.046 196.282 385.085 197.123 386.753 197.123C388.339 197.123 389.508 196.248 389.508 195.011C389.508 193.992 388.988 193.432 387.553 193.083L386.425 192.81C385.632 192.618 385.27 192.283 385.27 191.791C385.27 191.169 385.844 190.738 386.712 190.738C387.587 190.738 388.134 191.196 388.223 191.941H389.357C389.31 190.684 388.271 189.768 386.712 189.768C385.174 189.768 384.101 190.636 384.101 191.853ZM396.562 197.123C398.524 197.123 399.851 195.708 399.851 193.445C399.851 191.176 398.524 189.768 396.562 189.768C394.594 189.768 393.268 191.176 393.268 193.445C393.268 195.708 394.594 197.123 396.562 197.123ZM396.562 196.077C395.305 196.077 394.478 195.12 394.478 193.445C394.478 191.771 395.305 190.813 396.562 190.813C397.82 190.813 398.641 191.771 398.641 193.445C398.641 195.12 397.82 196.077 396.562 196.077ZM401.054 197H402.243V192.57C402.243 191.565 402.845 190.902 403.768 190.902C404.055 190.902 404.308 190.937 404.403 190.971V189.815C404.308 189.802 404.13 189.768 403.925 189.768C403.091 189.768 402.435 190.267 402.202 191.053H402.175V189.891H401.054V197ZM408.122 191.853C408.122 192.878 408.771 193.5 410.111 193.821L411.239 194.095C412.053 194.293 412.333 194.587 412.333 195.1C412.333 195.742 411.738 196.152 410.774 196.152C409.811 196.152 409.264 195.763 409.12 194.949H407.931C408.067 196.282 409.106 197.123 410.774 197.123C412.36 197.123 413.529 196.248 413.529 195.011C413.529 193.992 413.01 193.432 411.574 193.083L410.446 192.81C409.653 192.618 409.291 192.283 409.291 191.791C409.291 191.169 409.865 190.738 410.733 190.738C411.608 190.738 412.155 191.196 412.244 191.941H413.379C413.331 190.684 412.292 189.768 410.733 189.768C409.195 189.768 408.122 190.636 408.122 191.853ZM415.423 188.626C415.84 188.626 416.168 188.291 416.168 187.881C416.168 187.464 415.84 187.136 415.423 187.136C415.013 187.136 414.678 187.464 414.678 187.881C414.678 188.291 415.013 188.626 415.423 188.626ZM414.828 197H416.018V189.891H414.828V197ZM418.007 188.175V189.891H416.947V190.868H418.007V195.154C418.007 196.521 418.513 197.055 419.818 197.055C420.099 197.055 420.427 197.034 420.57 197V196.002C420.488 196.016 420.215 196.036 420.078 196.036C419.47 196.036 419.196 195.742 419.196 195.093V190.868H420.577V189.891H419.196V188.175H418.007ZM427.687 189.891H426.497V194.067C426.497 195.277 425.8 196.07 424.645 196.07C423.544 196.07 423.004 195.448 423.004 194.293V189.891H421.814V194.505C421.814 196.118 422.724 197.123 424.275 197.123C425.369 197.123 426.107 196.665 426.531 195.845H426.559V197H427.687V189.891ZM431.31 197.123C432.267 197.123 433.169 196.59 433.593 195.776H433.62V197H434.748V192.085C434.748 190.67 433.695 189.768 432.027 189.768C430.346 189.768 429.293 190.711 429.211 191.941H430.359C430.51 191.244 431.084 190.813 432 190.813C432.984 190.813 433.559 191.333 433.559 192.201V192.796L431.521 192.912C429.881 193.008 428.944 193.773 428.944 194.99C428.944 196.269 429.895 197.123 431.31 197.123ZM431.576 196.111C430.722 196.111 430.154 195.667 430.154 194.99C430.154 194.32 430.701 193.896 431.658 193.835L433.559 193.719V194.3C433.559 195.325 432.697 196.111 431.576 196.111ZM436.642 188.175V189.891H435.582V190.868H436.642V195.154C436.642 196.521 437.147 197.055 438.453 197.055C438.733 197.055 439.062 197.034 439.205 197V196.002C439.123 196.016 438.85 196.036 438.713 196.036C438.104 196.036 437.831 195.742 437.831 195.093V190.868H439.212V189.891H437.831V188.175H436.642ZM441.14 188.626C441.557 188.626 441.885 188.291 441.885 187.881C441.885 187.464 441.557 187.136 441.14 187.136C440.729 187.136 440.395 187.464 440.395 187.881C440.395 188.291 440.729 188.626 441.14 188.626ZM440.545 197H441.734V189.891H440.545V197ZM446.287 197.123C448.249 197.123 449.575 195.708 449.575 193.445C449.575 191.176 448.249 189.768 446.287 189.768C444.318 189.768 442.992 191.176 442.992 193.445C442.992 195.708 444.318 197.123 446.287 197.123ZM446.287 196.077C445.029 196.077 444.202 195.12 444.202 193.445C444.202 191.771 445.029 190.813 446.287 190.813C447.545 190.813 448.365 191.771 448.365 193.445C448.365 195.12 447.545 196.077 446.287 196.077ZM450.778 197H451.968V192.816C451.968 191.613 452.699 190.82 453.82 190.82C454.914 190.82 455.454 191.449 455.454 192.598V197H456.644V192.386C456.644 190.772 455.741 189.768 454.183 189.768C453.082 189.768 452.323 190.26 451.927 191.025H451.899V189.891H450.778V197ZM458.038 191.853C458.038 192.878 458.688 193.5 460.027 193.821L461.155 194.095C461.969 194.293 462.249 194.587 462.249 195.1C462.249 195.742 461.654 196.152 460.69 196.152C459.727 196.152 459.18 195.763 459.036 194.949H457.847C457.983 196.282 459.022 197.123 460.69 197.123C462.276 197.123 463.445 196.248 463.445 195.011C463.445 193.992 462.926 193.432 461.49 193.083L460.362 192.81C459.569 192.618 459.207 192.283 459.207 191.791C459.207 191.169 459.781 190.738 460.649 190.738C461.524 190.738 462.071 191.196 462.16 191.941H463.295C463.247 190.684 462.208 189.768 460.649 189.768C459.111 189.768 458.038 190.636 458.038 191.853ZM469.632 197.123C470.589 197.123 471.491 196.59 471.915 195.776H471.942V197H473.07V192.085C473.07 190.67 472.018 189.768 470.35 189.768C468.668 189.768 467.615 190.711 467.533 191.941H468.682C468.832 191.244 469.406 190.813 470.322 190.813C471.307 190.813 471.881 191.333 471.881 192.201V192.796L469.844 192.912C468.203 193.008 467.267 193.773 467.267 194.99C467.267 196.269 468.217 197.123 469.632 197.123ZM469.898 196.111C469.044 196.111 468.477 195.667 468.477 194.99C468.477 194.32 469.023 193.896 469.98 193.835L471.881 193.719V194.3C471.881 195.325 471.02 196.111 469.898 196.111ZM474.581 197H475.771V192.57C475.771 191.565 476.372 190.902 477.295 190.902C477.582 190.902 477.835 190.937 477.931 190.971V189.815C477.835 189.802 477.657 189.768 477.452 189.768C476.618 189.768 475.962 190.267 475.729 191.053H475.702V189.891H474.581V197ZM483.276 194.963C483.078 195.633 482.415 196.091 481.513 196.091C480.234 196.091 479.435 195.195 479.435 193.835V193.767H484.534V193.315C484.534 191.162 483.352 189.768 481.431 189.768C479.469 189.768 478.211 191.265 478.211 193.473C478.211 195.708 479.448 197.123 481.485 197.123C483.037 197.123 484.24 196.207 484.445 194.963H483.276ZM481.41 190.8C482.531 190.8 483.276 191.647 483.304 192.837H479.441C479.517 191.654 480.296 190.8 481.41 190.8ZM488.485 191.853C488.485 192.878 489.135 193.5 490.475 193.821L491.603 194.095C492.416 194.293 492.696 194.587 492.696 195.1C492.696 195.742 492.102 196.152 491.138 196.152C490.174 196.152 489.627 195.763 489.483 194.949H488.294C488.431 196.282 489.47 197.123 491.138 197.123C492.724 197.123 493.893 196.248 493.893 195.011C493.893 193.992 493.373 193.432 491.938 193.083L490.81 192.81C490.017 192.618 489.654 192.283 489.654 191.791C489.654 191.169 490.229 190.738 491.097 190.738C491.972 190.738 492.519 191.196 492.607 191.941H493.742C493.694 190.684 492.655 189.768 491.097 189.768C489.559 189.768 488.485 190.636 488.485 191.853ZM499.847 194.963C499.648 195.633 498.985 196.091 498.083 196.091C496.805 196.091 496.005 195.195 496.005 193.835V193.767H501.104V193.315C501.104 191.162 499.922 189.768 498.001 189.768C496.039 189.768 494.781 191.265 494.781 193.473C494.781 195.708 496.019 197.123 498.056 197.123C499.607 197.123 500.811 196.207 501.016 194.963H499.847ZM497.98 190.8C499.102 190.8 499.847 191.647 499.874 192.837H496.012C496.087 191.654 496.866 190.8 497.98 190.8ZM508.214 192.222C508.063 190.943 507.004 189.768 505.227 189.768C503.265 189.768 501.959 191.203 501.959 193.445C501.959 195.735 503.271 197.123 505.24 197.123C506.854 197.123 508.043 196.125 508.228 194.71H507.059C506.854 195.564 506.218 196.077 505.247 196.077C504.017 196.077 503.169 195.1 503.169 193.445C503.169 191.832 504.003 190.813 505.233 190.813C506.279 190.813 506.881 191.449 507.052 192.222H508.214ZM509.321 197H510.511V192.57C510.511 191.565 511.112 190.902 512.035 190.902C512.322 190.902 512.575 190.937 512.671 190.971V189.815C512.575 189.802 512.397 189.768 512.192 189.768C511.358 189.768 510.702 190.267 510.47 191.053H510.442V189.891H509.321V197ZM518.017 194.963C517.818 195.633 517.155 196.091 516.253 196.091C514.975 196.091 514.175 195.195 514.175 193.835V193.767H519.274V193.315C519.274 191.162 518.092 189.768 516.171 189.768C514.209 189.768 512.951 191.265 512.951 193.473C512.951 195.708 514.188 197.123 516.226 197.123C517.777 197.123 518.98 196.207 519.186 194.963H518.017ZM516.15 190.8C517.271 190.8 518.017 191.647 518.044 192.837H514.182C514.257 191.654 515.036 190.8 516.15 190.8ZM520.86 188.175V189.891H519.801V190.868H520.86V195.154C520.86 196.521 521.366 197.055 522.672 197.055C522.952 197.055 523.28 197.034 523.424 197V196.002C523.342 196.016 523.068 196.036 522.932 196.036C522.323 196.036 522.05 195.742 522.05 195.093V190.868H523.431V189.891H522.05V188.175H520.86ZM524.764 197H525.953V187.136H524.764V197ZM528.154 199.659C529.439 199.659 530.027 199.16 530.636 197.499L533.432 189.891H532.181L530.212 195.811H530.191L528.223 189.891H526.951L529.576 197.007L529.412 197.506C529.139 198.333 528.77 198.654 528.106 198.654C527.956 198.654 527.771 198.647 527.642 198.62V199.618C527.771 199.646 528.011 199.659 528.154 199.659ZM215.772 214H216.962V209.543C216.962 208.559 217.646 207.82 218.589 207.82C219.471 207.82 220.045 208.381 220.045 209.235V214H221.234V209.481C221.234 208.518 221.897 207.82 222.841 207.82C223.777 207.82 224.317 208.395 224.317 209.365V214H225.507V209.092C225.507 207.684 224.598 206.768 223.189 206.768C222.191 206.768 221.357 207.273 220.961 208.121H220.934C220.626 207.26 219.908 206.768 218.938 206.768C217.98 206.768 217.256 207.273 216.921 208.025H216.894V206.891H215.772V214ZM229.103 214.123C230.06 214.123 230.962 213.59 231.386 212.776H231.413V214H232.541V209.085C232.541 207.67 231.488 206.768 229.82 206.768C228.139 206.768 227.086 207.711 227.004 208.941H228.152C228.303 208.244 228.877 207.813 229.793 207.813C230.777 207.813 231.352 208.333 231.352 209.201V209.796L229.314 209.912C227.674 210.008 226.737 210.773 226.737 211.99C226.737 213.269 227.688 214.123 229.103 214.123ZM229.369 213.111C228.515 213.111 227.947 212.667 227.947 211.99C227.947 211.32 228.494 210.896 229.451 210.835L231.352 210.719V211.3C231.352 212.325 230.49 213.111 229.369 213.111ZM234.052 214H235.241V209.816C235.241 208.613 235.973 207.82 237.094 207.82C238.188 207.82 238.728 208.449 238.728 209.598V214H239.917V209.386C239.917 207.772 239.015 206.768 237.456 206.768C236.355 206.768 235.597 207.26 235.2 208.025H235.173V206.891H234.052V214ZM242.091 205.626C242.508 205.626 242.836 205.291 242.836 204.881C242.836 204.464 242.508 204.136 242.091 204.136C241.681 204.136 241.346 204.464 241.346 204.881C241.346 205.291 241.681 205.626 242.091 205.626ZM241.496 214H242.686V206.891H241.496V214ZM247.744 206.768C246.712 206.768 245.885 207.294 245.447 208.094H245.42V206.891H244.292V216.372H245.481V212.845H245.509C245.933 213.624 246.753 214.123 247.771 214.123C249.562 214.123 250.786 212.674 250.786 210.445C250.786 208.217 249.556 206.768 247.744 206.768ZM247.512 213.077C246.295 213.077 245.475 212.031 245.475 210.445C245.475 208.866 246.295 207.813 247.512 207.813C248.776 207.813 249.569 208.839 249.569 210.445C249.569 212.059 248.776 213.077 247.512 213.077ZM257.827 206.891H256.638V211.067C256.638 212.277 255.94 213.07 254.785 213.07C253.685 213.07 253.145 212.448 253.145 211.293V206.891H251.955V211.505C251.955 213.118 252.864 214.123 254.416 214.123C255.51 214.123 256.248 213.665 256.672 212.845H256.699V214H257.827V206.891ZM259.434 214H260.623V204.136H259.434V214ZM264.308 214.123C265.265 214.123 266.167 213.59 266.591 212.776H266.618V214H267.746V209.085C267.746 207.67 266.693 206.768 265.025 206.768C263.344 206.768 262.291 207.711 262.209 208.941H263.357C263.508 208.244 264.082 207.813 264.998 207.813C265.982 207.813 266.557 208.333 266.557 209.201V209.796L264.52 209.912C262.879 210.008 261.942 210.773 261.942 211.99C261.942 213.269 262.893 214.123 264.308 214.123ZM264.574 213.111C263.72 213.111 263.152 212.667 263.152 211.99C263.152 211.32 263.699 210.896 264.656 210.835L266.557 210.719V211.3C266.557 212.325 265.695 213.111 264.574 213.111ZM269.64 205.175V206.891H268.58V207.868H269.64V212.154C269.64 213.521 270.146 214.055 271.451 214.055C271.731 214.055 272.06 214.034 272.203 214V213.002C272.121 213.016 271.848 213.036 271.711 213.036C271.103 213.036 270.829 212.742 270.829 212.093V207.868H272.21V206.891H270.829V205.175H269.64ZM277.993 211.963C277.795 212.633 277.132 213.091 276.229 213.091C274.951 213.091 274.151 212.195 274.151 210.835V210.767H279.251V210.315C279.251 208.162 278.068 206.768 276.147 206.768C274.186 206.768 272.928 208.265 272.928 210.473C272.928 212.708 274.165 214.123 276.202 214.123C277.754 214.123 278.957 213.207 279.162 211.963H277.993ZM276.127 207.8C277.248 207.8 277.993 208.647 278.021 209.837H274.158C274.233 208.654 275.013 207.8 276.127 207.8ZM283.147 214.123C284.173 214.123 284.986 213.617 285.444 212.797H285.465V214H286.6V204.136H285.41V208.046H285.383C284.959 207.267 284.139 206.768 283.12 206.768C281.329 206.768 280.105 208.217 280.105 210.445C280.105 212.674 281.336 214.123 283.147 214.123ZM283.373 207.813C284.597 207.813 285.417 208.859 285.417 210.445C285.417 212.038 284.597 213.077 283.373 213.077C282.115 213.077 281.322 212.059 281.322 210.445C281.322 208.839 282.115 207.813 283.373 207.813ZM294.611 214.123C296.43 214.123 297.633 212.681 297.633 210.445C297.633 208.217 296.423 206.768 294.632 206.768C293.627 206.768 292.8 207.267 292.355 208.08H292.328V204.136H291.139V214H292.273V212.797H292.301C292.759 213.617 293.572 214.123 294.611 214.123ZM294.379 207.813C295.637 207.813 296.416 208.832 296.416 210.445C296.416 212.072 295.637 213.077 294.379 213.077C293.176 213.077 292.321 212.031 292.321 210.445C292.321 208.866 293.176 207.813 294.379 207.813ZM303.56 211.963C303.361 212.633 302.698 213.091 301.796 213.091C300.518 213.091 299.718 212.195 299.718 210.835V210.767H304.817V210.315C304.817 208.162 303.635 206.768 301.714 206.768C299.752 206.768 298.494 208.265 298.494 210.473C298.494 212.708 299.731 214.123 301.769 214.123C303.32 214.123 304.523 213.207 304.729 211.963H303.56ZM301.693 207.8C302.814 207.8 303.56 208.647 303.587 209.837H299.725C299.8 208.654 300.579 207.8 301.693 207.8ZM306.082 214H307.271V209.857C307.271 208.627 308.003 207.82 309.186 207.82C310.3 207.82 310.867 208.497 310.867 209.625V214H312.057V209.406C312.057 207.82 311.113 206.768 309.555 206.768C308.475 206.768 307.695 207.232 307.299 208.025H307.271V204.136H306.082V214ZM314.224 205.626C314.641 205.626 314.969 205.291 314.969 204.881C314.969 204.464 314.641 204.136 314.224 204.136C313.813 204.136 313.479 204.464 313.479 204.881C313.479 205.291 313.813 205.626 314.224 205.626ZM313.629 214H314.818V206.891H313.629V214ZM316.425 214H317.614V209.816C317.614 208.613 318.346 207.82 319.467 207.82C320.561 207.82 321.101 208.449 321.101 209.598V214H322.29V209.386C322.29 207.772 321.388 206.768 319.829 206.768C318.729 206.768 317.97 207.26 317.573 208.025H317.546V206.891H316.425V214ZM326.501 214.123C327.526 214.123 328.34 213.617 328.798 212.797H328.818V214H329.953V204.136H328.764V208.046H328.736C328.312 207.267 327.492 206.768 326.474 206.768C324.683 206.768 323.459 208.217 323.459 210.445C323.459 212.674 324.689 214.123 326.501 214.123ZM326.727 207.813C327.95 207.813 328.771 208.859 328.771 210.445C328.771 212.038 327.95 213.077 326.727 213.077C325.469 213.077 324.676 212.059 324.676 210.445C324.676 208.839 325.469 207.813 326.727 207.813ZM334.813 205.175V206.891H333.754V207.868H334.813V212.154C334.813 213.521 335.319 214.055 336.625 214.055C336.905 214.055 337.233 214.034 337.377 214V213.002C337.295 213.016 337.021 213.036 336.885 213.036C336.276 213.036 336.003 212.742 336.003 212.093V207.868H337.384V206.891H336.003V205.175H334.813ZM338.717 214H339.906V209.857C339.906 208.627 340.638 207.82 341.82 207.82C342.935 207.82 343.502 208.497 343.502 209.625V214H344.691V209.406C344.691 207.82 343.748 206.768 342.189 206.768C341.109 206.768 340.33 207.232 339.934 208.025H339.906V204.136H338.717V214ZM350.919 211.963C350.721 212.633 350.058 213.091 349.155 213.091C347.877 213.091 347.077 212.195 347.077 210.835V210.767H352.177V210.315C352.177 208.162 350.994 206.768 349.073 206.768C347.111 206.768 345.854 208.265 345.854 210.473C345.854 212.708 347.091 214.123 349.128 214.123C350.68 214.123 351.883 213.207 352.088 211.963H350.919ZM349.053 207.8C350.174 207.8 350.919 208.647 350.946 209.837H347.084C347.159 208.654 347.938 207.8 349.053 207.8ZM356.128 208.853C356.128 209.878 356.777 210.5 358.117 210.821L359.245 211.095C360.059 211.293 360.339 211.587 360.339 212.1C360.339 212.742 359.744 213.152 358.78 213.152C357.816 213.152 357.27 212.763 357.126 211.949H355.937C356.073 213.282 357.112 214.123 358.78 214.123C360.366 214.123 361.535 213.248 361.535 212.011C361.535 210.992 361.016 210.432 359.58 210.083L358.452 209.81C357.659 209.618 357.297 209.283 357.297 208.791C357.297 208.169 357.871 207.738 358.739 207.738C359.614 207.738 360.161 208.196 360.25 208.941H361.385C361.337 207.684 360.298 206.768 358.739 206.768C357.201 206.768 356.128 207.636 356.128 208.853ZM368.679 209.222C368.528 207.943 367.469 206.768 365.691 206.768C363.729 206.768 362.424 208.203 362.424 210.445C362.424 212.735 363.736 214.123 365.705 214.123C367.318 214.123 368.508 213.125 368.692 211.71H367.523C367.318 212.564 366.683 213.077 365.712 213.077C364.481 213.077 363.634 212.1 363.634 210.445C363.634 208.832 364.468 207.813 365.698 207.813C366.744 207.813 367.346 208.449 367.517 209.222H368.679ZM374.503 211.963C374.305 212.633 373.642 213.091 372.739 213.091C371.461 213.091 370.661 212.195 370.661 210.835V210.767H375.761V210.315C375.761 208.162 374.578 206.768 372.657 206.768C370.695 206.768 369.438 208.265 369.438 210.473C369.438 212.708 370.675 214.123 372.712 214.123C374.264 214.123 375.467 213.207 375.672 211.963H374.503ZM372.637 207.8C373.758 207.8 374.503 208.647 374.53 209.837H370.668C370.743 208.654 371.522 207.8 372.637 207.8ZM376.964 214H378.153V209.816C378.153 208.613 378.885 207.82 380.006 207.82C381.1 207.82 381.64 208.449 381.64 209.598V214H382.829V209.386C382.829 207.772 381.927 206.768 380.368 206.768C379.268 206.768 378.509 207.26 378.112 208.025H378.085V206.891H376.964V214ZM389.063 211.963C388.865 212.633 388.202 213.091 387.3 213.091C386.021 213.091 385.222 212.195 385.222 210.835V210.767H390.321V210.315C390.321 208.162 389.139 206.768 387.218 206.768C385.256 206.768 383.998 208.265 383.998 210.473C383.998 212.708 385.235 214.123 387.272 214.123C388.824 214.123 390.027 213.207 390.232 211.963H389.063ZM387.197 207.8C388.318 207.8 389.063 208.647 389.091 209.837H385.229C385.304 208.654 386.083 207.8 387.197 207.8ZM391.401 208.853C391.401 209.878 392.051 210.5 393.391 210.821L394.519 211.095C395.332 211.293 395.612 211.587 395.612 212.1C395.612 212.742 395.018 213.152 394.054 213.152C393.09 213.152 392.543 212.763 392.399 211.949H391.21C391.347 213.282 392.386 214.123 394.054 214.123C395.64 214.123 396.809 213.248 396.809 212.011C396.809 210.992 396.289 210.432 394.854 210.083L393.726 209.81C392.933 209.618 392.57 209.283 392.57 208.791C392.57 208.169 393.145 207.738 394.013 207.738C394.888 207.738 395.435 208.196 395.523 208.941H396.658C396.61 207.684 395.571 206.768 394.013 206.768C392.475 206.768 391.401 207.636 391.401 208.853ZM404.451 214.123C406.27 214.123 407.473 212.681 407.473 210.445C407.473 208.217 406.263 206.768 404.472 206.768C403.467 206.768 402.64 207.267 402.195 208.08H402.168V204.136H400.979V214H402.113V212.797H402.141C402.599 213.617 403.412 214.123 404.451 214.123ZM404.219 207.813C405.477 207.813 406.256 208.832 406.256 210.445C406.256 212.072 405.477 213.077 404.219 213.077C403.016 213.077 402.161 212.031 402.161 210.445C402.161 208.866 403.016 207.813 404.219 207.813ZM409.072 216.659C410.357 216.659 410.945 216.16 411.554 214.499L414.35 206.891H413.099L411.13 212.811H411.109L409.141 206.891H407.869L410.494 214.007L410.33 214.506C410.057 215.333 409.688 215.654 409.024 215.654C408.874 215.654 408.689 215.647 408.56 215.62V216.618C408.689 216.646 408.929 216.659 409.072 216.659ZM421.609 206.768C420.577 206.768 419.75 207.294 419.312 208.094H419.285V206.891H418.157V216.372H419.347V212.845H419.374C419.798 213.624 420.618 214.123 421.637 214.123C423.428 214.123 424.651 212.674 424.651 210.445C424.651 208.217 423.421 206.768 421.609 206.768ZM421.377 213.077C420.16 213.077 419.34 212.031 419.34 210.445C419.34 208.866 420.16 207.813 421.377 207.813C422.642 207.813 423.435 208.839 423.435 210.445C423.435 212.059 422.642 213.077 421.377 213.077ZM428.801 214.123C430.763 214.123 432.089 212.708 432.089 210.445C432.089 208.176 430.763 206.768 428.801 206.768C426.832 206.768 425.506 208.176 425.506 210.445C425.506 212.708 426.832 214.123 428.801 214.123ZM428.801 213.077C427.543 213.077 426.716 212.12 426.716 210.445C426.716 208.771 427.543 207.813 428.801 207.813C430.059 207.813 430.879 208.771 430.879 210.445C430.879 212.12 430.059 213.077 428.801 213.077ZM442.336 206.891H441.16L439.738 212.674H439.711L438.098 206.891H436.949L435.343 212.674H435.315L433.894 206.891H432.711L434.7 214H435.91L437.51 208.497H437.537L439.144 214H440.354L442.336 206.891ZM448.03 211.963C447.832 212.633 447.169 213.091 446.267 213.091C444.988 213.091 444.188 212.195 444.188 210.835V210.767H449.288V210.315C449.288 208.162 448.105 206.768 446.185 206.768C444.223 206.768 442.965 208.265 442.965 210.473C442.965 212.708 444.202 214.123 446.239 214.123C447.791 214.123 448.994 213.207 449.199 211.963H448.03ZM446.164 207.8C447.285 207.8 448.03 208.647 448.058 209.837H444.195C444.271 208.654 445.05 207.8 446.164 207.8ZM450.491 214H451.681V209.57C451.681 208.565 452.282 207.902 453.205 207.902C453.492 207.902 453.745 207.937 453.841 207.971V206.815C453.745 206.802 453.567 206.768 453.362 206.768C452.528 206.768 451.872 207.267 451.64 208.053H451.612V206.891H450.491V214ZM455.468 214H456.657V207.868H458.106V206.891H456.65V206.104C456.65 205.4 456.958 205.059 457.601 205.059C457.799 205.059 457.997 205.079 458.141 205.1V204.136C457.97 204.108 457.683 204.081 457.416 204.081C456.104 204.081 455.468 204.73 455.468 206.098V206.891H454.477V207.868H455.468V214ZM465.175 206.891H463.985V211.067C463.985 212.277 463.288 213.07 462.133 213.07C461.032 213.07 460.492 212.448 460.492 211.293V206.891H459.303V211.505C459.303 213.118 460.212 214.123 461.764 214.123C462.857 214.123 463.596 213.665 464.02 212.845H464.047V214H465.175V206.891ZM466.781 214H467.971V204.136H466.781V214ZM472.831 214H474.021V207.868H475.47V206.891H474.014V206.104C474.014 205.4 474.321 205.059 474.964 205.059C475.162 205.059 475.36 205.079 475.504 205.1V204.136C475.333 204.108 475.046 204.081 474.779 204.081C473.467 204.081 472.831 204.73 472.831 206.098V206.891H471.84V207.868H472.831V214ZM479.305 214.123C481.267 214.123 482.593 212.708 482.593 210.445C482.593 208.176 481.267 206.768 479.305 206.768C477.336 206.768 476.01 208.176 476.01 210.445C476.01 212.708 477.336 214.123 479.305 214.123ZM479.305 213.077C478.047 213.077 477.22 212.12 477.22 210.445C477.22 208.771 478.047 207.813 479.305 207.813C480.562 207.813 481.383 208.771 481.383 210.445C481.383 212.12 480.562 213.077 479.305 213.077ZM483.796 214H484.985V209.57C484.985 208.565 485.587 207.902 486.51 207.902C486.797 207.902 487.05 207.937 487.146 207.971V206.815C487.05 206.802 486.872 206.768 486.667 206.768C485.833 206.768 485.177 207.267 484.944 208.053H484.917V206.891H483.796V214ZM493.681 209.222C493.53 207.943 492.471 206.768 490.693 206.768C488.731 206.768 487.426 208.203 487.426 210.445C487.426 212.735 488.738 214.123 490.707 214.123C492.32 214.123 493.51 213.125 493.694 211.71H492.525C492.32 212.564 491.685 213.077 490.714 213.077C489.483 213.077 488.636 212.1 488.636 210.445C488.636 208.832 489.47 207.813 490.7 207.813C491.746 207.813 492.348 208.449 492.519 209.222H493.681ZM499.505 211.963C499.307 212.633 498.644 213.091 497.741 213.091C496.463 213.091 495.663 212.195 495.663 210.835V210.767H500.763V210.315C500.763 208.162 499.58 206.768 497.659 206.768C495.697 206.768 494.439 208.265 494.439 210.473C494.439 212.708 495.677 214.123 497.714 214.123C499.266 214.123 500.469 213.207 500.674 211.963H499.505ZM497.639 207.8C498.76 207.8 499.505 208.647 499.532 209.837H495.67C495.745 208.654 496.524 207.8 497.639 207.8ZM501.843 208.853C501.843 209.878 502.492 210.5 503.832 210.821L504.96 211.095C505.773 211.293 506.054 211.587 506.054 212.1C506.054 212.742 505.459 213.152 504.495 213.152C503.531 213.152 502.984 212.763 502.841 211.949H501.651C501.788 213.282 502.827 214.123 504.495 214.123C506.081 214.123 507.25 213.248 507.25 212.011C507.25 210.992 506.73 210.432 505.295 210.083L504.167 209.81C503.374 209.618 503.012 209.283 503.012 208.791C503.012 208.169 503.586 207.738 504.454 207.738C505.329 207.738 505.876 208.196 505.965 208.941H507.1C507.052 207.684 506.013 206.768 504.454 206.768C502.916 206.768 501.843 207.636 501.843 208.853ZM520.402 206.891H519.227L517.805 212.674H517.777L516.164 206.891H515.016L513.409 212.674H513.382L511.96 206.891H510.777L512.767 214H513.977L515.576 208.497H515.604L517.21 214H518.42L520.402 206.891ZM522.036 205.626C522.453 205.626 522.781 205.291 522.781 204.881C522.781 204.464 522.453 204.136 522.036 204.136C521.626 204.136 521.291 204.464 521.291 204.881C521.291 205.291 521.626 205.626 522.036 205.626ZM521.441 214H522.631V206.891H521.441V214ZM524.62 205.175V206.891H523.561V207.868H524.62V212.154C524.62 213.521 525.126 214.055 526.432 214.055C526.712 214.055 527.04 214.034 527.184 214V213.002C527.102 213.016 526.828 213.036 526.691 213.036C526.083 213.036 525.81 212.742 525.81 212.093V207.868H527.19V206.891H525.81V205.175H524.62ZM528.523 214H529.713V209.857C529.713 208.627 530.444 207.82 531.627 207.82C532.741 207.82 533.309 208.497 533.309 209.625V214H534.498V209.406C534.498 207.82 533.555 206.768 531.996 206.768C530.916 206.768 530.137 207.232 529.74 208.025H529.713V204.136H528.523V214ZM215.772 231H216.962V226.816C216.962 225.613 217.693 224.82 218.814 224.82C219.908 224.82 220.448 225.449 220.448 226.598V231H221.638V226.386C221.638 224.772 220.735 223.768 219.177 223.768C218.076 223.768 217.317 224.26 216.921 225.025H216.894V223.891H215.772V231ZM227.872 228.963C227.674 229.633 227.011 230.091 226.108 230.091C224.83 230.091 224.03 229.195 224.03 227.835V227.767H229.13V227.315C229.13 225.162 227.947 223.768 226.026 223.768C224.064 223.768 222.807 225.265 222.807 227.473C222.807 229.708 224.044 231.123 226.081 231.123C227.633 231.123 228.836 230.207 229.041 228.963H227.872ZM226.006 224.8C227.127 224.8 227.872 225.647 227.899 226.837H224.037C224.112 225.654 224.892 224.8 226.006 224.8ZM233.266 233.68C235.228 233.68 236.479 232.552 236.479 230.856V223.891H235.344V225.087H235.323C234.852 224.26 234.018 223.768 233.013 223.768C231.174 223.768 229.984 225.189 229.984 227.418C229.984 229.626 231.174 231.055 232.985 231.055C233.983 231.055 234.824 230.549 235.262 229.776H235.289V230.897C235.289 231.957 234.544 232.668 233.313 232.668C232.425 232.668 231.721 232.237 231.488 231.588H230.265C230.463 232.798 231.7 233.68 233.266 233.68ZM233.225 230.009C232.001 230.009 231.201 229.011 231.201 227.418C231.201 225.825 232.001 224.813 233.225 224.813C234.462 224.813 235.289 225.853 235.289 227.418C235.289 228.983 234.462 230.009 233.225 230.009ZM240.108 231.123C241.065 231.123 241.968 230.59 242.392 229.776H242.419V231H243.547V226.085C243.547 224.67 242.494 223.768 240.826 223.768C239.145 223.768 238.092 224.711 238.01 225.941H239.158C239.309 225.244 239.883 224.813 240.799 224.813C241.783 224.813 242.357 225.333 242.357 226.201V226.796L240.32 226.912C238.68 227.008 237.743 227.773 237.743 228.99C237.743 230.269 238.693 231.123 240.108 231.123ZM240.375 230.111C239.521 230.111 238.953 229.667 238.953 228.99C238.953 228.32 239.5 227.896 240.457 227.835L242.357 227.719V228.3C242.357 229.325 241.496 230.111 240.375 230.111ZM245.44 222.175V223.891H244.381V224.868H245.44V229.154C245.44 230.521 245.946 231.055 247.252 231.055C247.532 231.055 247.86 231.034 248.004 231V230.002C247.922 230.016 247.648 230.036 247.512 230.036C246.903 230.036 246.63 229.742 246.63 229.093V224.868H248.011V223.891H246.63V222.175H245.44ZM249.938 222.626C250.355 222.626 250.684 222.291 250.684 221.881C250.684 221.464 250.355 221.136 249.938 221.136C249.528 221.136 249.193 221.464 249.193 221.881C249.193 222.291 249.528 222.626 249.938 222.626ZM249.344 231H250.533V223.891H249.344V231ZM257.971 223.891H256.733L254.765 229.735H254.737L252.775 223.891H251.524L254.143 231H255.359L257.971 223.891ZM263.419 228.963C263.221 229.633 262.558 230.091 261.655 230.091C260.377 230.091 259.577 229.195 259.577 227.835V227.767H264.677V227.315C264.677 225.162 263.494 223.768 261.573 223.768C259.611 223.768 258.354 225.265 258.354 227.473C258.354 229.708 259.591 231.123 261.628 231.123C263.18 231.123 264.383 230.207 264.588 228.963H263.419ZM261.553 224.8C262.674 224.8 263.419 225.647 263.446 226.837H259.584C259.659 225.654 260.438 224.8 261.553 224.8ZM269.407 222.626C269.824 222.626 270.152 222.291 270.152 221.881C270.152 221.464 269.824 221.136 269.407 221.136C268.997 221.136 268.662 221.464 268.662 221.881C268.662 222.291 268.997 222.626 269.407 222.626ZM268.812 231H270.002V223.891H268.812V231ZM271.608 231H272.798V226.816C272.798 225.613 273.529 224.82 274.65 224.82C275.744 224.82 276.284 225.449 276.284 226.598V231H277.474V226.386C277.474 224.772 276.571 223.768 275.013 223.768C273.912 223.768 273.153 224.26 272.757 225.025H272.729V223.891H271.608V231ZM279.374 222.175V223.891H278.314V224.868H279.374V229.154C279.374 230.521 279.88 231.055 281.186 231.055C281.466 231.055 281.794 231.034 281.938 231V230.002C281.855 230.016 281.582 230.036 281.445 230.036C280.837 230.036 280.563 229.742 280.563 229.093V224.868H281.944V223.891H280.563V222.175H279.374ZM287.728 228.963C287.529 229.633 286.866 230.091 285.964 230.091C284.686 230.091 283.886 229.195 283.886 227.835V227.767H288.985V227.315C288.985 225.162 287.803 223.768 285.882 223.768C283.92 223.768 282.662 225.265 282.662 227.473C282.662 229.708 283.899 231.123 285.937 231.123C287.488 231.123 288.691 230.207 288.896 228.963H287.728ZM285.861 224.8C286.982 224.8 287.728 225.647 287.755 226.837H283.893C283.968 225.654 284.747 224.8 285.861 224.8ZM290.188 231H291.378V226.816C291.378 225.613 292.109 224.82 293.23 224.82C294.324 224.82 294.864 225.449 294.864 226.598V231H296.054V226.386C296.054 224.772 295.151 223.768 293.593 223.768C292.492 223.768 291.733 224.26 291.337 225.025H291.31V223.891H290.188V231ZM297.954 222.175V223.891H296.895V224.868H297.954V229.154C297.954 230.521 298.46 231.055 299.766 231.055C300.046 231.055 300.374 231.034 300.518 231V230.002C300.436 230.016 300.162 230.036 300.025 230.036C299.417 230.036 299.144 229.742 299.144 229.093V224.868H300.524V223.891H299.144V222.175H297.954ZM302.801 231.068C303.238 231.068 303.58 230.727 303.58 230.289C303.58 229.852 303.238 229.51 302.801 229.51C302.363 229.51 302.021 229.852 302.021 230.289C302.021 230.727 302.363 231.068 302.801 231.068ZM305.624 224.615L306.561 221.136H305.296L304.633 224.615H305.624ZM308.276 224.615L309.213 221.136H307.948L307.285 224.615H308.276Z" fill="black"/>
<path d="M222.068 263.893H217.188V260.502H221.815V259.408H217.188V256.243H222.068V255.136H215.957V265H222.068V263.893ZM229.349 257.891H228.159V262.067C228.159 263.277 227.462 264.07 226.307 264.07C225.206 264.07 224.666 263.448 224.666 262.293V257.891H223.477V262.505C223.477 264.118 224.386 265.123 225.938 265.123C227.031 265.123 227.77 264.665 228.193 263.845H228.221V265H229.349V257.891ZM230.894 265H232.083V260.57C232.083 259.565 232.685 258.902 233.607 258.902C233.895 258.902 234.147 258.937 234.243 258.971V257.815C234.147 257.802 233.97 257.768 233.765 257.768C232.931 257.768 232.274 258.267 232.042 259.053H232.015V257.891H230.894V265ZM237.818 265.123C239.78 265.123 241.106 263.708 241.106 261.445C241.106 259.176 239.78 257.768 237.818 257.768C235.85 257.768 234.523 259.176 234.523 261.445C234.523 263.708 235.85 265.123 237.818 265.123ZM237.818 264.077C236.561 264.077 235.733 263.12 235.733 261.445C235.733 259.771 236.561 258.813 237.818 258.813C239.076 258.813 239.896 259.771 239.896 261.445C239.896 263.12 239.076 264.077 237.818 264.077ZM245.762 257.768C244.729 257.768 243.902 258.294 243.465 259.094H243.438V257.891H242.31V267.372H243.499V263.845H243.526C243.95 264.624 244.771 265.123 245.789 265.123C247.58 265.123 248.804 263.674 248.804 261.445C248.804 259.217 247.573 257.768 245.762 257.768ZM245.529 264.077C244.312 264.077 243.492 263.031 243.492 261.445C243.492 259.866 244.312 258.813 245.529 258.813C246.794 258.813 247.587 259.839 247.587 261.445C247.587 263.059 246.794 264.077 245.529 264.077ZM254.724 262.963C254.525 263.633 253.862 264.091 252.96 264.091C251.682 264.091 250.882 263.195 250.882 261.835V261.767H255.981V261.315C255.981 259.162 254.799 257.768 252.878 257.768C250.916 257.768 249.658 259.265 249.658 261.473C249.658 263.708 250.896 265.123 252.933 265.123C254.484 265.123 255.688 264.207 255.893 262.963H254.724ZM252.857 258.8C253.979 258.8 254.724 259.647 254.751 260.837H250.889C250.964 259.654 251.743 258.8 252.857 258.8ZM259.263 265.123C260.22 265.123 261.122 264.59 261.546 263.776H261.573V265H262.701V260.085C262.701 258.67 261.648 257.768 259.98 257.768C258.299 257.768 257.246 258.711 257.164 259.941H258.312C258.463 259.244 259.037 258.813 259.953 258.813C260.938 258.813 261.512 259.333 261.512 260.201V260.796L259.475 260.912C257.834 261.008 256.897 261.773 256.897 262.99C256.897 264.269 257.848 265.123 259.263 265.123ZM259.529 264.111C258.675 264.111 258.107 263.667 258.107 262.99C258.107 262.32 258.654 261.896 259.611 261.835L261.512 261.719V262.3C261.512 263.325 260.65 264.111 259.529 264.111ZM264.212 265H265.401V260.816C265.401 259.613 266.133 258.82 267.254 258.82C268.348 258.82 268.888 259.449 268.888 260.598V265H270.077V260.386C270.077 258.772 269.175 257.768 267.616 257.768C266.516 257.768 265.757 258.26 265.36 259.025H265.333V257.891H264.212V265ZM280.372 260.222C280.222 258.943 279.162 257.768 277.385 257.768C275.423 257.768 274.117 259.203 274.117 261.445C274.117 263.735 275.43 265.123 277.398 265.123C279.012 265.123 280.201 264.125 280.386 262.71H279.217C279.012 263.564 278.376 264.077 277.405 264.077C276.175 264.077 275.327 263.1 275.327 261.445C275.327 259.832 276.161 258.813 277.392 258.813C278.438 258.813 279.039 259.449 279.21 260.222H280.372ZM284.426 265.123C286.388 265.123 287.714 263.708 287.714 261.445C287.714 259.176 286.388 257.768 284.426 257.768C282.457 257.768 281.131 259.176 281.131 261.445C281.131 263.708 282.457 265.123 284.426 265.123ZM284.426 264.077C283.168 264.077 282.341 263.12 282.341 261.445C282.341 259.771 283.168 258.813 284.426 258.813C285.684 258.813 286.504 259.771 286.504 261.445C286.504 263.12 285.684 264.077 284.426 264.077ZM288.917 265H290.106V260.543C290.106 259.559 290.79 258.82 291.733 258.82C292.615 258.82 293.189 259.381 293.189 260.235V265H294.379V260.481C294.379 259.518 295.042 258.82 295.985 258.82C296.922 258.82 297.462 259.395 297.462 260.365V265H298.651V260.092C298.651 258.684 297.742 257.768 296.334 257.768C295.336 257.768 294.502 258.273 294.105 259.121H294.078C293.771 258.26 293.053 257.768 292.082 257.768C291.125 257.768 290.4 258.273 290.065 259.025H290.038V257.891H288.917V265ZM300.169 265H301.358V260.543C301.358 259.559 302.042 258.82 302.985 258.82C303.867 258.82 304.441 259.381 304.441 260.235V265H305.631V260.481C305.631 259.518 306.294 258.82 307.237 258.82C308.174 258.82 308.714 259.395 308.714 260.365V265H309.903V260.092C309.903 258.684 308.994 257.768 307.586 257.768C306.588 257.768 305.754 258.273 305.357 259.121H305.33C305.022 258.26 304.305 257.768 303.334 257.768C302.377 257.768 301.652 258.273 301.317 259.025H301.29V257.891H300.169V265ZM312.077 256.626C312.494 256.626 312.822 256.291 312.822 255.881C312.822 255.464 312.494 255.136 312.077 255.136C311.667 255.136 311.332 255.464 311.332 255.881C311.332 256.291 311.667 256.626 312.077 256.626ZM311.482 265H312.672V257.891H311.482V265ZM314.155 259.853C314.155 260.878 314.805 261.5 316.145 261.821L317.272 262.095C318.086 262.293 318.366 262.587 318.366 263.1C318.366 263.742 317.771 264.152 316.808 264.152C315.844 264.152 315.297 263.763 315.153 262.949H313.964C314.101 264.282 315.14 265.123 316.808 265.123C318.394 265.123 319.562 264.248 319.562 263.011C319.562 261.992 319.043 261.432 317.607 261.083L316.479 260.81C315.687 260.618 315.324 260.283 315.324 259.791C315.324 259.169 315.898 258.738 316.767 258.738C317.642 258.738 318.188 259.196 318.277 259.941H319.412C319.364 258.684 318.325 257.768 316.767 257.768C315.229 257.768 314.155 258.636 314.155 259.853ZM320.677 259.853C320.677 260.878 321.326 261.5 322.666 261.821L323.794 262.095C324.607 262.293 324.888 262.587 324.888 263.1C324.888 263.742 324.293 264.152 323.329 264.152C322.365 264.152 321.818 263.763 321.675 262.949H320.485C320.622 264.282 321.661 265.123 323.329 265.123C324.915 265.123 326.084 264.248 326.084 263.011C326.084 261.992 325.564 261.432 324.129 261.083L323.001 260.81C322.208 260.618 321.846 260.283 321.846 259.791C321.846 259.169 322.42 258.738 323.288 258.738C324.163 258.738 324.71 259.196 324.799 259.941H325.934C325.886 258.684 324.847 257.768 323.288 257.768C321.75 257.768 320.677 258.636 320.677 259.853ZM327.978 256.626C328.395 256.626 328.723 256.291 328.723 255.881C328.723 255.464 328.395 255.136 327.978 255.136C327.567 255.136 327.232 255.464 327.232 255.881C327.232 256.291 327.567 256.626 327.978 256.626ZM327.383 265H328.572V257.891H327.383V265ZM333.125 265.123C335.087 265.123 336.413 263.708 336.413 261.445C336.413 259.176 335.087 257.768 333.125 257.768C331.156 257.768 329.83 259.176 329.83 261.445C329.83 263.708 331.156 265.123 333.125 265.123ZM333.125 264.077C331.867 264.077 331.04 263.12 331.04 261.445C331.04 259.771 331.867 258.813 333.125 258.813C334.383 258.813 335.203 259.771 335.203 261.445C335.203 263.12 334.383 264.077 333.125 264.077ZM337.616 265H338.806V260.816C338.806 259.613 339.537 258.82 340.658 258.82C341.752 258.82 342.292 259.449 342.292 260.598V265H343.481V260.386C343.481 258.772 342.579 257.768 341.021 257.768C339.92 257.768 339.161 258.26 338.765 259.025H338.737V257.891H337.616V265Z" fill="#1E0BF9"/>
<path d="M215 267.529H344.22V268.35H215V267.529Z" fill="#1E0BF9"/>
<path d="M228.453 105.52H228.576L232.322 119H236.219L241.455 99.2715H237.176L234.059 113.559H233.949L230.258 99.2715H226.771L223.08 113.559H222.971L219.867 99.2715H215.588L220.811 119H224.707L228.453 105.52ZM243.358 119H247.35V110.633C247.35 108.705 248.457 107.379 250.344 107.379C252.162 107.379 253.092 108.527 253.092 110.414V119H257.084V109.566C257.084 106.176 255.225 104.07 251.971 104.07C249.742 104.07 248.143 105.109 247.363 106.955H247.281V99.2715H243.358V119ZM263.908 119.232C265.74 119.232 267.559 118.316 268.379 116.758H268.461V119H272.317V108.924C272.317 105.971 269.869 104.029 266.11 104.029C262.227 104.029 259.807 105.984 259.656 108.828H263.307C263.498 107.748 264.442 107.01 265.932 107.01C267.436 107.01 268.393 107.803 268.393 109.17V110.141L264.701 110.359C261.051 110.578 259 112.123 259 114.789C259 117.428 261.119 119.232 263.908 119.232ZM265.221 116.348C263.867 116.348 262.965 115.664 262.965 114.57C262.965 113.531 263.813 112.861 265.303 112.752L268.393 112.561V113.627C268.393 115.213 266.957 116.348 265.221 116.348ZM275.887 100.967V104.344H273.822V107.352H275.887V115.049C275.887 117.906 277.227 119.055 280.672 119.055C281.479 119.055 282.162 118.986 282.572 118.891V115.951C282.326 115.992 281.957 116.02 281.602 116.02C280.426 116.02 279.879 115.486 279.879 114.365V107.352H282.586V104.344H279.879V100.967H275.887ZM294.512 119.232C296.344 119.232 298.162 118.316 298.983 116.758H299.065V119H302.92V108.924C302.92 105.971 300.473 104.029 296.713 104.029C292.83 104.029 290.411 105.984 290.26 108.828H293.911C294.102 107.748 295.045 107.01 296.536 107.01C298.039 107.01 298.996 107.803 298.996 109.17V110.141L295.305 110.359C291.655 110.578 289.604 112.123 289.604 114.789C289.604 117.428 291.723 119.232 294.512 119.232ZM295.825 116.348C294.471 116.348 293.569 115.664 293.569 114.57C293.569 113.531 294.416 112.861 295.907 112.752L298.996 112.561V113.627C298.996 115.213 297.561 116.348 295.825 116.348ZM305.424 119H309.416V110.811C309.416 108.746 310.565 107.543 312.534 107.543C313.108 107.543 313.655 107.639 313.983 107.775V104.262C313.709 104.18 313.313 104.111 312.848 104.111C311.125 104.111 309.881 105.123 309.362 106.982H309.28V104.344H305.424V119ZM324.758 114.516C324.389 115.637 323.268 116.361 321.805 116.361C319.768 116.361 318.442 114.926 318.442 112.834V112.588H328.545V111.371C328.545 106.914 325.852 104.029 321.586 104.029C317.253 104.029 314.518 107.064 314.518 111.74C314.518 116.43 317.225 119.314 321.737 119.314C325.36 119.314 327.985 117.387 328.422 114.516H324.758ZM321.628 106.982C323.405 106.982 324.622 108.268 324.704 110.141H318.483C318.62 108.309 319.878 106.982 321.628 106.982ZM349.317 109.799C349.139 106.477 346.624 104.029 342.659 104.029C338.27 104.029 335.467 106.955 335.467 111.658C335.467 116.443 338.27 119.314 342.686 119.314C346.542 119.314 349.126 117.086 349.331 113.627H345.612C345.366 115.227 344.327 116.184 342.727 116.184C340.745 116.184 339.514 114.543 339.514 111.658C339.514 108.828 340.745 107.16 342.714 107.16C344.354 107.16 345.38 108.254 345.612 109.799H349.317ZM357.905 119.314C362.335 119.314 365.165 116.484 365.165 111.658C365.165 106.9 362.294 104.029 357.905 104.029C353.516 104.029 350.645 106.914 350.645 111.658C350.645 116.471 353.475 119.314 357.905 119.314ZM357.905 116.266C355.936 116.266 354.692 114.611 354.692 111.672C354.692 108.76 355.964 107.078 357.905 107.078C359.846 107.078 361.104 108.76 361.104 111.672C361.104 114.611 359.86 116.266 357.905 116.266ZM367.149 119H371.141V110.592C371.141 108.691 372.276 107.379 374.067 107.379C375.858 107.379 376.761 108.473 376.761 110.387V119H380.753V109.553C380.753 106.121 378.921 104.07 375.667 104.07C373.411 104.07 371.866 105.137 371.087 106.955H371.005V104.344H367.149V119ZM382.956 108.65C382.956 110.852 384.392 112.273 387.222 112.875L389.724 113.395C391.159 113.723 391.665 114.16 391.665 114.939C391.665 115.896 390.735 116.512 389.231 116.512C387.645 116.512 386.729 115.828 386.483 114.543H382.587C382.847 117.428 385.185 119.314 389.231 119.314C393.005 119.314 395.644 117.414 395.644 114.529C395.644 112.383 394.386 111.18 391.323 110.537L388.821 110.004C387.345 109.689 386.798 109.184 386.798 108.432C386.798 107.461 387.714 106.832 389.095 106.832C390.571 106.832 391.46 107.639 391.583 108.828H395.261C395.179 105.957 392.854 104.029 389.095 104.029C385.362 104.029 382.956 105.861 382.956 108.65ZM406.091 104.111C403.972 104.111 402.345 105.178 401.552 106.9H401.47V104.344H397.532V123.785H401.524V116.539H401.606C402.386 118.193 404.026 119.232 406.159 119.232C409.823 119.232 412.093 116.389 412.093 111.672C412.093 106.941 409.81 104.111 406.091 104.111ZM404.751 116.02C402.796 116.02 401.511 114.324 401.511 111.672C401.511 109.047 402.796 107.311 404.751 107.311C406.747 107.311 408.005 109.02 408.005 111.672C408.005 114.338 406.747 116.02 404.751 116.02ZM416.128 102.361C417.29 102.361 418.206 101.432 418.206 100.311C418.206 99.1758 417.29 98.2598 416.128 98.2598C414.966 98.2598 414.05 99.1758 414.05 100.311C414.05 101.432 414.966 102.361 416.128 102.361ZM414.146 119H418.138V104.344H414.146V119ZM420.724 119H424.716V110.811C424.716 108.746 425.864 107.543 427.833 107.543C428.407 107.543 428.954 107.639 429.282 107.775V104.262C429.009 104.18 428.613 104.111 428.148 104.111C426.425 104.111 425.181 105.123 424.661 106.982H424.579V104.344H420.724V119ZM434.835 119.232C436.667 119.232 438.486 118.316 439.306 116.758H439.388V119H443.243V108.924C443.243 105.971 440.796 104.029 437.036 104.029C433.154 104.029 430.734 105.984 430.583 108.828H434.234C434.425 107.748 435.368 107.01 436.859 107.01C438.363 107.01 439.32 107.803 439.32 109.17V110.141L435.628 110.359C431.978 110.578 429.927 112.123 429.927 114.789C429.927 117.428 432.046 119.232 434.835 119.232ZM436.148 116.348C434.794 116.348 433.892 115.664 433.892 114.57C433.892 113.531 434.74 112.861 436.23 112.752L439.32 112.561V113.627C439.32 115.213 437.884 116.348 436.148 116.348ZM459.064 109.799C458.886 106.477 456.37 104.029 452.406 104.029C448.017 104.029 445.214 106.955 445.214 111.658C445.214 116.443 448.017 119.314 452.433 119.314C456.288 119.314 458.872 117.086 459.077 113.627H455.359C455.113 115.227 454.074 116.184 452.474 116.184C450.492 116.184 449.261 114.543 449.261 111.658C449.261 108.828 450.492 107.16 452.46 107.16C454.101 107.16 455.126 108.254 455.359 109.799H459.064ZM462.812 124.428C466.544 124.428 468.39 123.074 469.634 119.314L474.679 104.344H470.468L467.365 115.801H467.283L464.165 104.344H459.79L464.89 119C464.904 119.068 464.753 119.643 464.753 119.711C464.48 120.873 463.755 121.338 462.306 121.338C462.156 121.338 461.431 121.324 461.294 121.297V124.387C461.431 124.414 462.662 124.428 462.812 124.428ZM217.365 133.967V137.344H215.301V140.352H217.365V148.049C217.365 150.906 218.705 152.055 222.15 152.055C222.957 152.055 223.641 151.986 224.051 151.891V148.951C223.805 148.992 223.436 149.02 223.08 149.02C221.904 149.02 221.357 148.486 221.357 147.365V140.352H224.064V137.344H221.357V133.967H217.365ZM226.268 152H230.26V143.633C230.26 141.705 231.367 140.379 233.254 140.379C235.072 140.379 236.002 141.527 236.002 143.414V152H239.994V142.566C239.994 139.176 238.135 137.07 234.881 137.07C232.652 137.07 231.053 138.109 230.274 139.955H230.191V132.271H226.268V152ZM252.178 147.516C251.809 148.637 250.688 149.361 249.225 149.361C247.188 149.361 245.861 147.926 245.861 145.834V145.588H255.965V144.371C255.965 139.914 253.272 137.029 249.006 137.029C244.672 137.029 241.938 140.064 241.938 144.74C241.938 149.43 244.645 152.314 249.156 152.314C252.779 152.314 255.404 150.387 255.842 147.516H252.178ZM249.047 139.982C250.824 139.982 252.041 141.268 252.123 143.141H245.903C246.039 141.309 247.297 139.982 249.047 139.982ZM264.676 152.314C269.106 152.314 271.936 149.484 271.936 144.658C271.936 139.9 269.065 137.029 264.676 137.029C260.287 137.029 257.416 139.914 257.416 144.658C257.416 149.471 260.246 152.314 264.676 152.314ZM264.676 149.266C262.707 149.266 261.463 147.611 261.463 144.672C261.463 141.76 262.735 140.078 264.676 140.078C266.617 140.078 267.875 141.76 267.875 144.672C267.875 147.611 266.631 149.266 264.676 149.266ZM273.92 152H277.912V143.811C277.912 141.746 279.061 140.543 281.03 140.543C281.604 140.543 282.151 140.639 282.479 140.775V137.262C282.205 137.18 281.809 137.111 281.344 137.111C279.621 137.111 278.377 138.123 277.858 139.982H277.776V137.344H273.92V152ZM286.09 135.361C287.252 135.361 288.168 134.432 288.168 133.311C288.168 132.176 287.252 131.26 286.09 131.26C284.928 131.26 284.012 132.176 284.012 133.311C284.012 134.432 284.928 135.361 286.09 135.361ZM284.108 152H288.1V137.344H284.108V152ZM300.393 147.516C300.024 148.637 298.903 149.361 297.44 149.361C295.403 149.361 294.077 147.926 294.077 145.834V145.588H304.18V144.371C304.18 139.914 301.487 137.029 297.221 137.029C292.887 137.029 290.153 140.064 290.153 144.74C290.153 149.43 292.86 152.314 297.372 152.314C300.995 152.314 303.62 150.387 304.057 147.516H300.393ZM297.262 139.982C299.04 139.982 300.256 141.268 300.338 143.141H294.118C294.254 141.309 295.512 139.982 297.262 139.982ZM305.919 141.65C305.919 143.852 307.354 145.273 310.184 145.875L312.686 146.395C314.122 146.723 314.628 147.16 314.628 147.939C314.628 148.896 313.698 149.512 312.194 149.512C310.608 149.512 309.692 148.828 309.446 147.543H305.549C305.809 150.428 308.147 152.314 312.194 152.314C315.967 152.314 318.606 150.414 318.606 147.529C318.606 145.383 317.348 144.18 314.286 143.537L311.784 143.004C310.307 142.689 309.76 142.184 309.76 141.432C309.76 140.461 310.676 139.832 312.057 139.832C313.534 139.832 314.422 140.639 314.545 141.828H318.223C318.141 138.957 315.817 137.029 312.057 137.029C308.325 137.029 305.919 138.861 305.919 141.65ZM319.934 137.809H323.639C323.721 136.264 324.76 135.266 326.333 135.266C327.891 135.266 328.93 136.209 328.93 137.508C328.93 138.807 328.397 139.477 326.633 140.529C324.747 141.637 323.995 142.867 324.173 145.014L324.2 145.807H327.823V145.082C327.823 143.742 328.329 143.072 330.147 142.02C332.075 140.885 333.073 139.449 333.073 137.385C333.073 134.268 330.489 132.094 326.579 132.094C322.381 132.094 320.003 134.445 319.934 137.809ZM326.059 152.342C327.303 152.342 328.301 151.398 328.301 150.195C328.301 148.992 327.303 148.049 326.059 148.049C324.829 148.049 323.831 148.992 323.831 150.195C323.831 151.398 324.829 152.342 326.059 152.342Z" fill="black" fill-opacity="0.849977"/>
<defs>
<filter id="filter0_d" x="0" y="0" width="604" height="352" filterUnits="userSpaceOnUse" color-interpolation-filters="sRGB">
<feFlood flood-opacity="0" result="BackgroundImageFix"/>
<feColorMatrix in="SourceAlpha" type="matrix" values="0 0 0 0 0 0 0 0 0 0 0 0 0 0 0 0 0 0 127 0"/>
<feOffset dy="6"/>
<feGaussianBlur stdDeviation="4.5"/>
<feColorMatrix type="matrix" values="0 0 0 0 0 0 0 0 0 0 0 0 0 0 0 0 0 0 0.15 0"/>
<feBlend mode="normal" in2="BackgroundImageFix" result="effect1_dropShadow"/>
<feBlend mode="normal" in="SourceGraphic" in2="effect1_dropShadow" result="shape"/>
</filter>
</defs>
</svg>
